<svg width="22" height="19" viewBox="0 0 22 19" fill="none" xmlns="http://www.w3.org/2000/svg">
<path d="M11 18.1123C11 18.1123 1.625 12.8623 1.625 6.48731C1.625 5.36033 2.01546 4.26816 2.72996 3.39662C3.44445 2.52507 4.43884 1.928 5.54393 1.70698C6.64903 1.48596 7.79657 1.65465 8.79131 2.18435C9.78605 2.71404 10.5665 3.57202 11 4.61231C11.4335 3.57202 12.2139 2.71404 13.2087 2.18435C14.2034 1.65465 15.351 1.48596 16.4561 1.70698C17.5612 1.928 18.5555 2.52507 19.27 3.39662C19.9845 4.26816 20.375 5.36033 20.375 6.48731C20.375 12.8623 11 18.1123 11 18.1123Z" fill="white" stroke="white" stroke-width="1.75" stroke-linecap="round" stroke-linejoin="round"/>
</svg>
