<svg width="26" height="26" viewBox="0 0 26 26" fill="none" xmlns="http://www.w3.org/2000/svg">
<path d="M20.0625 19C20.0625 19.2818 19.9506 19.552 19.7513 19.7513C19.552 19.9506 19.2818 20.0625 19 20.0625C18.7182 20.0625 18.448 19.9506 18.2487 19.7513C18.0494 19.552 17.9375 19.2818 17.9375 19V14.5C17.9375 13.8535 17.6807 13.2335 17.2236 12.7764C16.7665 12.3193 16.1465 12.0625 15.5 12.0625C14.8535 12.0625 14.2335 12.3193 13.7764 12.7764C13.3193 13.2335 13.0625 13.8535 13.0625 14.5V19C13.0625 19.2818 12.9506 19.552 12.7513 19.7513C12.552 19.9506 12.2818 20.0625 12 20.0625C11.7182 20.0625 11.448 19.9506 11.2487 19.7513C11.0494 19.552 10.9375 19.2818 10.9375 19V11.0002V11H11L20.0625 19ZM20.0625 19V14.5C20.0625 13.6712 19.8368 12.858 19.4095 12.1478C18.9823 11.4376 18.3696 10.8572 17.6374 10.4689C16.9051 10.0807 16.081 9.8992 15.2533 9.944C14.4548 9.98724 13.6821 10.2396 13.0125 10.6751L20.0625 19ZM2.5 0.5625H23.5C24.0139 0.5625 24.5067 0.766629 24.87 1.12998C25.2334 1.49333 25.4375 1.98614 25.4375 2.5V23.5C25.4375 24.0139 25.2334 24.5067 24.87 24.87C24.5067 25.2334 24.0139 25.4375 23.5 25.4375H2.5C1.98614 25.4375 1.49333 25.2334 1.12998 24.87C0.766629 24.5067 0.5625 24.0139 0.5625 23.5V2.5C0.5625 1.98614 0.766629 1.49333 1.12998 1.12998C1.49333 0.766629 1.98614 0.5625 2.5 0.5625ZM8.7513 19.7513C8.95056 19.552 9.0625 19.2818 9.0625 19V11C9.0625 10.7182 8.95056 10.448 8.7513 10.2487C8.55204 10.0494 8.28179 9.9375 8 9.9375C7.71821 9.9375 7.44796 10.0494 7.2487 10.2487C7.04944 10.448 6.9375 10.7182 6.9375 11V19C6.9375 19.2818 7.04944 19.552 7.2487 19.7513C7.44796 19.9506 7.71821 20.0625 8 20.0625C8.28179 20.0625 8.55204 19.9506 8.7513 19.7513ZM7.13192 8.29917C7.38887 8.47086 7.69097 8.5625 8 8.5625C8.4144 8.5625 8.81183 8.39788 9.10485 8.10485C9.39788 7.81183 9.5625 7.4144 9.5625 7C9.5625 6.69097 9.47086 6.38887 9.29917 6.13192C9.12748 5.87497 8.88345 5.6747 8.59794 5.55644C8.31243 5.43818 7.99827 5.40723 7.69517 5.46752C7.39208 5.52781 7.11367 5.67663 6.89515 5.89515C6.67663 6.11367 6.52781 6.39208 6.46752 6.69517C6.40723 6.99827 6.43818 7.31243 6.55644 7.59794C6.6747 7.88345 6.87497 8.12748 7.13192 8.29917Z" fill="#0057B7" stroke="#0057B7" stroke-width="0.125"/>
</svg>
