<svg width="57" height="56" viewBox="0 0 57 56" fill="none" xmlns="http://www.w3.org/2000/svg">
<rect x="0.0234375" width="56" height="56" rx="28" fill="#FFD700"/>
<path d="M28.0234 11.75V44.25" stroke="#0057B7" stroke-width="2" stroke-linecap="round" stroke-linejoin="round"/>
<path d="M36.7734 21.75C36.7734 20.9292 36.6118 20.1165 36.2977 19.3582C35.9836 18.5999 35.5232 17.9109 34.9429 17.3306C34.3625 16.7502 33.6735 16.2898 32.9152 15.9758C32.1569 15.6617 31.3442 15.5 30.5234 15.5H24.8984C23.2408 15.5 21.6511 16.1585 20.479 17.3306C19.3069 18.5027 18.6484 20.0924 18.6484 21.75C18.6484 23.4076 19.3069 24.9973 20.479 26.1694C21.6511 27.3415 23.2408 28 24.8984 28H31.7734C33.431 28 35.0208 28.6585 36.1929 29.8306C37.365 31.0027 38.0234 32.5924 38.0234 34.25C38.0234 35.9076 37.365 37.4973 36.1929 38.6694C35.0208 39.8415 33.431 40.5 31.7734 40.5H24.2734C22.6158 40.5 21.0261 39.8415 19.854 38.6694C18.6819 37.4973 18.0234 35.9076 18.0234 34.25" stroke="#0057B7" stroke-width="2" stroke-linecap="round" stroke-linejoin="round"/>
</svg>
