<svg width="21" height="19" viewBox="0 0 21 19" fill="none" xmlns="http://www.w3.org/2000/svg">
<path d="M10.5 17.75C10.5 17.75 1.125 12.5 1.125 6.12501C1.125 4.99803 1.51546 3.90585 2.22996 3.03431C2.94445 2.16277 3.93884 1.5657 5.04393 1.34468C6.14903 1.12366 7.29657 1.29235 8.29131 1.82204C9.28605 2.35174 10.0665 3.20972 10.5 4.25001C10.9335 3.20972 11.7139 2.35174 12.7087 1.82204C13.7034 1.29235 14.851 1.12366 15.9561 1.34468C17.0612 1.5657 18.0555 2.16277 18.77 3.03431C19.4845 3.90585 19.875 4.99803 19.875 6.12501C19.875 12.5 10.5 17.75 10.5 17.75Z" fill="#FFD700" stroke="#FFD700" stroke-width="1.75" stroke-linecap="round" stroke-linejoin="round"/>
</svg>
