<svg width="32" height="32" viewBox="0 0 32 32" fill="none" xmlns="http://www.w3.org/2000/svg">
<path d="M13.9989 20.5623L13.9977 20.5623C13.9057 20.5588 13.8156 20.5351 13.7338 20.4928L13.7337 20.4928C13.6435 20.4459 13.5681 20.3749 13.5159 20.2878C13.4636 20.2008 13.4365 20.101 13.4375 19.9994M13.9989 20.5623L13.7625 11.5623C13.6826 11.6039 13.6158 11.6667 13.5694 11.744C13.5231 11.8212 13.4991 11.9098 13.5 11.9998H13.4375V12.0002V19.9994M13.9989 20.5623C14.1109 20.5644 14.2204 20.5297 14.3108 20.4635L20.3083 16.4652C20.3085 16.465 20.3088 16.4649 20.309 16.4648C20.3873 16.4153 20.4519 16.3467 20.4967 16.2656C20.5416 16.1842 20.5652 16.0928 20.5652 15.9998C20.5652 15.9068 20.5416 15.8154 20.4967 15.734C20.4519 15.6529 20.3873 15.5844 20.309 15.5349C20.3088 15.5347 20.3085 15.5346 20.3083 15.5344L14.3097 11.5353L14.3096 11.5353C14.225 11.4789 14.1268 11.4466 14.0252 11.4416C13.9238 11.4367 13.823 11.4593 13.7334 11.507L13.9989 20.5623ZM13.4375 19.9994C13.4375 19.9994 13.4375 19.9993 13.4375 19.9992L13.5 19.9998M13.4375 19.9994V19.9998H13.5M13.5 19.9998C13.4991 20.0899 13.5231 20.1784 13.5694 20.2556C13.6158 20.3329 13.6826 20.3957 13.7625 20.4373L13.5 19.9998ZM29.2269 8.73993L29.2271 8.74068C29.5504 9.97194 29.9375 12.2414 29.9375 15.9998C29.9375 19.7582 29.5504 22.0277 29.227 23.2589L29.2269 23.2597C29.1144 23.7107 28.8943 24.1278 28.5853 24.4751C28.2764 24.8224 27.8878 25.0896 27.4529 25.2538L27.4524 25.254C25.4106 26.0446 22.7863 26.4534 20.5613 26.6641C18.3374 26.8748 16.5177 26.8873 16.0875 26.8873H15.9125C15.4823 26.8873 13.6626 26.8748 11.4387 26.6641C9.21369 26.4534 6.58937 26.0446 4.54757 25.254L4.54708 25.2538C4.11221 25.0896 3.72364 24.8224 3.41468 24.4751C3.10573 24.1278 2.88559 23.7107 2.77315 23.2597L2.77295 23.2589C2.44959 22.0277 2.0625 19.7582 2.0625 15.9998C2.0625 12.2414 2.44959 9.97194 2.77295 8.74068L2.77295 8.74068L2.77314 8.73993C2.88559 8.28889 3.10573 7.87184 3.41468 7.52453C3.72364 7.17722 4.11221 6.91 4.54708 6.74578L4.5475 6.74561C6.67657 5.92387 9.44443 5.51506 11.7305 5.31206C13.9846 5.1119 15.7648 5.11226 15.9916 5.11231L16 5.11231L16.0084 5.11231C16.2352 5.11226 18.0154 5.1119 20.2695 5.31206C22.5556 5.51506 25.3234 5.92387 27.4525 6.74562L27.4529 6.74578C27.8878 6.91 28.2764 7.17722 28.5853 7.52453C28.8943 7.87184 29.1144 8.28889 29.2269 8.73993Z" fill="#0057B7" stroke="#0057B7" stroke-width="0.125"/>
</svg>
