<svg width="1440" height="704" viewBox="0 0 1440 704" fill="none" xmlns="http://www.w3.org/2000/svg">
<rect width="1440" height="704" fill="#0057B7"/>
<g filter="url(#filter0_d_2_123)">
<path fill-rule="evenodd" clip-rule="evenodd" d="M1128.97 367.101C1134.97 366.256 1153.04 346.471 1159.07 346.471C1165.09 346.471 1190.88 351.653 1190.88 347.365C1190.88 343.044 1199.51 328.424 1197.74 324.119C1196.03 319.847 1187.45 313.854 1189.16 309.532C1190.88 305.244 1202.91 305.244 1202.91 300.078C1202.91 294.913 1193.46 292.33 1193.46 288.886C1193.46 285.475 1205.51 279.449 1204.63 272.577C1203.77 265.723 1193.46 264.829 1182.28 258.819C1171.1 252.775 1159.89 255.375 1149.58 250.226C1139.28 245.076 1117.76 248.504 1117.76 245.076C1117.76 241.649 1104.03 230.457 1100.56 224.43C1097.13 218.436 1085.95 221.847 1079.08 226.152C1072.19 230.473 1066.16 232.179 1059.3 227.89C1052.42 223.569 1046.41 216.698 1040.38 219.264C1034.35 221.831 1023.17 220.142 1025.75 211.499C1028.32 202.906 1014.59 184.031 1008.56 181.465C1002.54 178.865 984.47 183.17 980.179 174.594C975.856 165.968 968.119 159.08 971.565 153.103C974.978 147.076 970.704 130.718 966.397 123.847C962.073 116.992 940.604 117.853 934.59 120.419C928.577 122.986 914.794 117.853 908.764 121.297C902.734 124.741 899.321 130.718 890.707 130.718C885.92 130.718 882.723 130.089 880.105 126.297C870.795 130.486 855.174 131.33 855.174 131.33C855.174 131.33 832.197 149.642 832.197 156.514C832.197 163.368 831.103 174.842 825.338 169.13C819.607 163.401 795.536 163.368 789.805 166.845C784.04 170.272 774.895 153.086 764.575 158.815C754.271 164.544 740.505 150.801 739.329 156.514C738.202 162.275 723.293 157.656 712.972 153.086C702.668 148.5 684.313 155.388 677.422 147.341C670.531 139.294 625.819 139.311 610.91 139.311C596.001 139.311 592.572 147.341 585.68 154.212C579.468 160.454 572.262 159.179 564.94 158.831C565.586 164.626 566.713 169.776 568.187 171.961C571.616 177.127 587.966 202.045 583.659 209.794C579.369 217.526 571.616 217.526 566.481 223.536C561.312 229.546 531.212 256.219 530.35 260.474C529.489 264.779 535.536 283.687 531.212 287.131C526.938 290.558 514 308.622 514 315.476C514 322.364 523.476 331.818 531.212 334.401C534.459 335.51 536.563 337.05 537.523 338.871C543.537 338.043 549.037 337.563 552.449 337.563C558.181 337.563 583.411 344.484 591.396 344.484C599.447 344.484 610.927 347.895 614.372 351.339C617.835 354.766 625.819 352.448 631.568 346.736C637.316 341.04 644.191 344.484 651.082 344.484C657.924 344.484 669.421 338.706 672.85 333.01C676.279 327.315 710.703 318.109 719.847 316.933C729.025 315.824 742.791 334.119 750.809 334.119C758.86 334.119 773.736 339.881 778.341 354.766C782.93 369.667 796.68 388.029 802.411 393.708C808.127 399.47 811.572 414.354 811.572 418.94C811.572 423.51 798.966 417.798 785.183 414.354C771.466 410.91 770.29 424.686 770.29 431.54C770.29 438.428 750.809 462.485 747.363 467.071C743.917 471.674 754.271 475.085 762.272 476.227C765.685 476.707 779.484 467.071 784.04 467.071C785.912 467.071 791.61 471.492 797.723 476.691C796.414 458.76 800.125 459.77 816.128 447.617C832.776 435.017 834.483 411.506 849.392 408.642C864.301 405.761 870.596 398.873 892.397 402.301C914.181 405.761 881.53 419.487 896.389 427.517C911.315 435.564 957.186 425.232 959.489 436.689C961.775 448.147 906.71 459.637 907.886 465.366C909.029 471.078 937.158 476.807 946.882 483.082C956.639 489.423 944.016 507.156 948.605 512.917C953.194 518.646 968.086 514.027 980.13 505.45C992.173 496.841 1001.88 499.705 1017.39 489.423C1032.89 479.092 1064.98 488.248 1068.99 481.973C1072.98 475.664 1059.79 469.356 1029.99 471.674C1000.19 473.942 998.468 445.862 998.468 440.117C998.468 434.405 1029.43 410.894 1047.19 409.222C1064.98 407.483 1079.29 402.301 1096.5 394.337C1103.43 391.108 1115.61 387.813 1128.03 385.446C1126.24 377.383 1123.84 367.846 1128.97 367.101Z" stroke="white" stroke-width="2"/>
</g>
<path d="M273.168 326.072C273.168 327.112 273.032 328.128 272.76 329.12C272.488 330.112 272.144 330.904 271.728 331.496L269.448 330.344C269.832 329.768 270.144 329.08 270.384 328.28C270.608 327.464 270.72 326.664 270.72 325.88C270.72 324.088 270.248 323.192 269.304 323.192C268.856 323.192 268.544 323.424 268.368 323.888C268.192 324.336 268.024 325.064 267.864 326.072C267.704 327.128 267.52 327.992 267.312 328.664C267.104 329.32 266.744 329.896 266.232 330.392C265.704 330.872 264.976 331.112 264.048 331.112C262.832 331.112 261.864 330.608 261.144 329.6C260.408 328.576 260.04 327.2 260.04 325.472C260.04 324.592 260.144 323.712 260.352 322.832C260.544 321.952 260.808 321.232 261.144 320.672L263.424 321.824C262.784 322.912 262.464 324.136 262.464 325.496C262.464 326.376 262.6 327.048 262.872 327.512C263.128 327.96 263.472 328.184 263.904 328.184C264.384 328.184 264.728 327.944 264.936 327.464C265.128 326.968 265.312 326.208 265.488 325.184C265.648 324.16 265.832 323.32 266.04 322.664C266.248 322.008 266.6 321.448 267.096 320.984C267.592 320.504 268.296 320.264 269.208 320.264C270.408 320.264 271.368 320.784 272.088 321.824C272.808 322.864 273.168 324.28 273.168 326.072ZM260.184 301.022L273 301.022L273 303.878L271.368 303.878C271.944 304.358 272.392 304.958 272.712 305.678C273.016 306.398 273.168 307.174 273.168 308.006C273.168 309.718 272.696 311.07 271.752 312.062C270.792 313.038 269.376 313.526 267.504 313.526L260.184 313.526L260.184 310.526L267.096 310.526C268.248 310.526 269.112 310.27 269.688 309.758C270.248 309.23 270.528 308.486 270.528 307.526C270.528 306.454 270.2 305.606 269.544 304.982C268.872 304.342 267.912 304.022 266.664 304.022L260.184 304.022L260.184 301.022ZM260.04 285.74C260.04 284.492 260.312 283.38 260.856 282.404C261.4 281.412 262.168 280.636 263.16 280.076C264.152 279.516 265.296 279.236 266.592 279.236C267.888 279.236 269.04 279.516 270.048 280.076C271.04 280.636 271.808 281.412 272.352 282.404C272.896 283.38 273.168 284.492 273.168 285.74C273.168 287.468 272.592 288.836 271.44 289.844L277.656 289.844L277.656 292.844L260.184 292.844L260.184 289.988L261.864 289.988C261.256 289.492 260.8 288.884 260.496 288.164C260.192 287.428 260.04 286.62 260.04 285.74ZM270.6 286.076C270.6 284.972 270.232 284.068 269.496 283.364C268.76 282.644 267.792 282.284 266.592 282.284C265.392 282.284 264.424 282.644 263.688 283.364C262.952 284.068 262.584 284.972 262.584 286.076C262.584 286.796 262.752 287.444 263.088 288.02C263.408 288.596 263.872 289.052 264.48 289.388C265.088 289.724 265.792 289.892 266.592 289.892C267.392 289.892 268.096 289.724 268.704 289.388C269.312 289.052 269.784 288.596 270.12 288.02C270.44 287.444 270.6 286.796 270.6 286.076ZM260.04 265.037C260.04 263.789 260.312 262.677 260.856 261.701C261.4 260.709 262.168 259.933 263.16 259.373C264.152 258.813 265.296 258.533 266.592 258.533C267.888 258.533 269.04 258.813 270.048 259.373C271.04 259.933 271.808 260.709 272.352 261.701C272.896 262.677 273.168 263.789 273.168 265.037C273.168 266.765 272.592 268.133 271.44 269.141L277.656 269.141L277.656 272.141L260.184 272.141L260.184 269.285L261.864 269.285C261.256 268.789 260.8 268.181 260.496 267.461C260.192 266.725 260.04 265.917 260.04 265.037ZM270.6 265.373C270.6 264.269 270.232 263.365 269.496 262.661C268.76 261.941 267.792 261.581 266.592 261.581C265.392 261.581 264.424 261.941 263.688 262.661C262.952 263.365 262.584 264.269 262.584 265.373C262.584 266.093 262.752 266.741 263.088 267.317C263.408 267.893 263.872 268.349 264.48 268.685C265.088 269.021 265.792 269.189 266.592 269.189C267.392 269.189 268.096 269.021 268.704 268.685C269.312 268.349 269.784 267.893 270.12 267.317C270.44 266.741 270.6 266.093 270.6 265.373ZM255.192 251.438L255.192 248.438L273 248.438L273 251.438L255.192 251.438ZM260.184 240.251L260.184 237.251L273 237.251L273 240.251L260.184 240.251ZM258.072 238.739C258.072 239.283 257.904 239.739 257.568 240.107C257.216 240.475 256.784 240.659 256.272 240.659C255.76 240.659 255.336 240.475 255 240.107C254.648 239.739 254.472 239.283 254.472 238.739C254.472 238.195 254.64 237.739 254.976 237.371C255.296 237.003 255.704 236.819 256.2 236.819C256.728 236.819 257.176 237.003 257.544 237.371C257.896 237.723 258.072 238.179 258.072 238.739ZM266.664 217.015C266.872 217.015 267.168 217.031 267.552 217.063L267.552 227.119C268.496 226.943 269.248 226.487 269.808 225.751C270.352 224.999 270.624 224.071 270.624 222.967C270.624 221.559 270.16 220.399 269.232 219.487L271.08 217.879C271.768 218.455 272.288 219.183 272.64 220.063C272.992 220.943 273.168 221.935 273.168 223.039C273.168 224.447 272.888 225.687 272.328 226.759C271.768 227.831 270.992 228.663 270 229.255C268.992 229.831 267.856 230.119 266.592 230.119C265.344 230.119 264.224 229.839 263.232 229.279C262.224 228.703 261.44 227.911 260.88 226.903C260.32 225.895 260.04 224.759 260.04 223.495C260.04 222.247 260.32 221.135 260.88 220.159C261.424 219.167 262.2 218.399 263.208 217.855C264.2 217.295 265.352 217.015 266.664 217.015ZM262.44 223.495C262.44 224.455 262.728 225.271 263.304 225.943C263.864 226.599 264.616 226.999 265.56 227.143L265.56 219.871C264.632 219.999 263.88 220.391 263.304 221.047C262.728 221.703 262.44 222.519 262.44 223.495ZM273.168 205.924C273.168 206.964 273.032 207.98 272.76 208.972C272.488 209.964 272.144 210.756 271.728 211.348L269.448 210.196C269.832 209.62 270.144 208.932 270.384 208.132C270.608 207.316 270.72 206.516 270.72 205.732C270.72 203.94 270.248 203.044 269.304 203.044C268.856 203.044 268.544 203.276 268.368 203.74C268.192 204.188 268.024 204.916 267.864 205.924C267.704 206.98 267.52 207.844 267.312 208.516C267.104 209.172 266.744 209.748 266.232 210.244C265.704 210.724 264.976 210.964 264.048 210.964C262.832 210.964 261.864 210.46 261.144 209.452C260.408 208.428 260.04 207.052 260.04 205.324C260.04 204.444 260.144 203.564 260.352 202.684C260.544 201.804 260.808 201.084 261.144 200.524L263.424 201.676C262.784 202.764 262.464 203.988 262.464 205.348C262.464 206.228 262.6 206.9 262.872 207.364C263.128 207.812 263.472 208.036 263.904 208.036C264.384 208.036 264.728 207.796 264.936 207.316C265.128 206.82 265.312 206.06 265.488 205.036C265.648 204.012 265.832 203.172 266.04 202.516C266.248 201.86 266.6 201.3 267.096 200.836C267.592 200.356 268.296 200.116 269.208 200.116C270.408 200.116 271.368 200.636 272.088 201.676C272.808 202.716 273.168 204.132 273.168 205.924Z" fill="#0057B7"/>
<path d="M658.251 187.533L655.963 184.253C655.867 184.263 655.723 184.269 655.531 184.269H653.003V187.533H650.923V176.333H655.531C656.501 176.333 657.344 176.493 658.059 176.813C658.784 177.133 659.339 177.591 659.723 178.189C660.107 178.786 660.299 179.495 660.299 180.317C660.299 181.159 660.091 181.885 659.675 182.493C659.269 183.101 658.683 183.554 657.915 183.853L660.491 187.533H658.251ZM658.203 180.317C658.203 179.602 657.968 179.053 657.499 178.669C657.029 178.285 656.341 178.093 655.435 178.093H653.003V182.557H655.435C656.341 182.557 657.029 182.365 657.499 181.981C657.968 181.586 658.203 181.031 658.203 180.317ZM662.584 178.989H664.584V187.533H662.584V178.989ZM663.592 177.581C663.229 177.581 662.925 177.469 662.68 177.245C662.435 177.01 662.312 176.722 662.312 176.381C662.312 176.039 662.435 175.757 662.68 175.533C662.925 175.298 663.229 175.181 663.592 175.181C663.955 175.181 664.259 175.293 664.504 175.517C664.749 175.73 664.872 176.002 664.872 176.333C664.872 176.685 664.749 176.983 664.504 177.229C664.269 177.463 663.965 177.581 663.592 177.581ZM675.359 178.989L671.695 187.533H669.631L665.967 178.989H668.047L670.703 185.325L673.439 178.989H675.359ZM681.607 178.893C682.684 178.893 683.548 179.207 684.199 179.837C684.85 180.466 685.175 181.399 685.175 182.637V187.533H683.175V182.893C683.175 182.146 682.999 181.586 682.647 181.213C682.295 180.829 681.794 180.637 681.143 180.637C680.407 180.637 679.826 180.861 679.399 181.309C678.972 181.746 678.759 182.381 678.759 183.213V187.533H676.759V178.989H678.663V180.093C678.994 179.698 679.41 179.399 679.911 179.197C680.412 178.994 680.978 178.893 681.607 178.893ZM695.972 183.309C695.972 183.447 695.961 183.645 695.94 183.901H689.236C689.353 184.53 689.657 185.031 690.148 185.405C690.649 185.767 691.268 185.949 692.004 185.949C692.943 185.949 693.716 185.639 694.324 185.021L695.396 186.253C695.012 186.711 694.527 187.058 693.94 187.293C693.353 187.527 692.692 187.645 691.956 187.645C691.017 187.645 690.191 187.458 689.476 187.085C688.761 186.711 688.207 186.194 687.812 185.533C687.428 184.861 687.236 184.103 687.236 183.261C687.236 182.429 687.423 181.682 687.796 181.021C688.18 180.349 688.708 179.826 689.38 179.453C690.052 179.079 690.809 178.893 691.652 178.893C692.484 178.893 693.225 179.079 693.876 179.453C694.537 179.815 695.049 180.333 695.412 181.005C695.785 181.666 695.972 182.434 695.972 183.309ZM691.652 180.493C691.012 180.493 690.468 180.685 690.02 181.069C689.583 181.442 689.316 181.943 689.22 182.573H694.068C693.983 181.954 693.721 181.453 693.284 181.069C692.847 180.685 692.303 180.493 691.652 180.493Z" fill="white"/>
<circle cx="673" cy="197.533" r="3" fill="white"/>
<path d="M817.541 193.845L815.765 195.669V198.533H813.685V187.333H815.765V193.077L821.301 187.333H823.637L818.933 192.341L823.925 198.533H821.493L817.541 193.845ZM832.706 189.989L828.706 199.221C828.332 200.149 827.879 200.799 827.346 201.173C826.812 201.557 826.167 201.749 825.41 201.749C824.983 201.749 824.562 201.679 824.146 201.541C823.73 201.402 823.388 201.21 823.122 200.965L823.922 199.493C824.114 199.674 824.338 199.818 824.594 199.925C824.86 200.031 825.127 200.085 825.394 200.085C825.746 200.085 826.034 199.994 826.258 199.813C826.492 199.631 826.706 199.327 826.898 198.901L827.042 198.565L823.314 189.989H825.394L828.082 196.309L830.786 189.989H832.706ZM834.106 189.989H836.106V198.533H834.106V189.989ZM835.114 188.581C834.751 188.581 834.447 188.469 834.202 188.245C833.956 188.01 833.834 187.722 833.834 187.381C833.834 187.039 833.956 186.757 834.202 186.533C834.447 186.298 834.751 186.181 835.114 186.181C835.476 186.181 835.78 186.293 836.026 186.517C836.271 186.73 836.394 187.002 836.394 187.333C836.394 187.685 836.271 187.983 836.026 188.229C835.791 188.463 835.487 188.581 835.114 188.581ZM846.881 189.989L843.217 198.533H841.153L837.489 189.989H839.569L842.225 196.325L844.961 189.989H846.881Z" fill="white"/>
<circle cx="829.5" cy="208.533" r="3" fill="white"/>
<circle cx="1031" cy="233.533" r="3" fill="white"/>
<path d="M1004.44 248.845L1002.67 250.669V253.533H1000.59V242.333H1002.67V248.077L1008.2 242.333H1010.54L1005.83 247.341L1010.83 253.533H1008.39L1004.44 248.845ZM1017.05 244.893C1018.12 244.893 1018.99 245.207 1019.64 245.837C1020.29 246.466 1020.62 247.399 1020.62 248.637V253.533H1018.62V248.893C1018.62 248.146 1018.44 247.586 1018.09 247.213C1017.74 246.829 1017.23 246.637 1016.58 246.637C1015.85 246.637 1015.27 246.861 1014.84 247.309C1014.41 247.746 1014.2 248.381 1014.2 249.213V253.533H1012.2V241.661H1014.2V245.981C1014.53 245.629 1014.94 245.362 1015.42 245.181C1015.91 244.989 1016.45 244.893 1017.05 244.893ZM1026.57 244.893C1027.83 244.893 1028.79 245.197 1029.45 245.805C1030.12 246.402 1030.45 247.309 1030.45 248.525V253.533H1028.57V252.493C1028.32 252.866 1027.97 253.154 1027.51 253.357C1027.06 253.549 1026.52 253.645 1025.88 253.645C1025.24 253.645 1024.68 253.538 1024.2 253.325C1023.72 253.101 1023.35 252.797 1023.08 252.413C1022.82 252.018 1022.69 251.575 1022.69 251.085C1022.69 250.317 1022.98 249.703 1023.54 249.245C1024.12 248.775 1025.02 248.541 1026.25 248.541H1028.45V248.413C1028.45 247.815 1028.27 247.357 1027.91 247.037C1027.56 246.717 1027.03 246.557 1026.33 246.557C1025.85 246.557 1025.37 246.631 1024.9 246.781C1024.44 246.93 1024.05 247.138 1023.73 247.405L1022.95 245.949C1023.4 245.607 1023.94 245.346 1024.57 245.165C1025.2 244.983 1025.86 244.893 1026.57 244.893ZM1026.29 252.189C1026.8 252.189 1027.24 252.077 1027.62 251.853C1028.02 251.618 1028.29 251.287 1028.45 250.861V249.869H1026.39C1025.24 249.869 1024.66 250.247 1024.66 251.005C1024.66 251.367 1024.81 251.655 1025.09 251.869C1025.38 252.082 1025.78 252.189 1026.29 252.189ZM1035.08 246.237C1035.65 245.341 1036.66 244.893 1038.12 244.893V246.797C1037.94 246.765 1037.79 246.749 1037.65 246.749C1036.87 246.749 1036.26 246.978 1035.83 247.437C1035.39 247.885 1035.17 248.535 1035.17 249.389V253.533H1033.17V244.989H1035.08V246.237ZM1043.45 249.869L1041.96 251.277V253.533H1039.96V241.661H1041.96V248.829L1046.11 244.989H1048.51L1044.94 248.573L1048.84 253.533H1046.41L1043.45 249.869ZM1050.21 244.989H1052.21V253.533H1050.21V244.989ZM1051.21 243.581C1050.85 243.581 1050.55 243.469 1050.3 243.245C1050.06 243.01 1049.93 242.722 1049.93 242.381C1049.93 242.039 1050.06 241.757 1050.3 241.533C1050.55 241.298 1050.85 241.181 1051.21 241.181C1051.58 241.181 1051.88 241.293 1052.13 241.517C1052.37 241.73 1052.49 242.002 1052.49 242.333C1052.49 242.685 1052.37 242.983 1052.13 243.229C1051.89 243.463 1051.59 243.581 1051.21 243.581ZM1062.98 244.989L1059.32 253.533H1057.25L1053.59 244.989H1055.67L1058.32 251.325L1061.06 244.989H1062.98Z" fill="white"/>
<path d="M818.756 397.693C817.615 397.693 816.586 397.447 815.668 396.957C814.751 396.455 814.031 395.767 813.508 394.893C812.986 394.007 812.724 393.021 812.724 391.933C812.724 390.845 812.986 389.863 813.508 388.989C814.031 388.103 814.751 387.415 815.668 386.925C816.586 386.423 817.615 386.173 818.756 386.173C819.898 386.173 820.927 386.423 821.844 386.925C822.762 387.415 823.482 388.098 824.004 388.973C824.527 389.847 824.788 390.834 824.788 391.933C824.788 393.031 824.527 394.018 824.004 394.893C823.482 395.767 822.762 396.455 821.844 396.957C820.927 397.447 819.898 397.693 818.756 397.693ZM818.756 395.869C819.503 395.869 820.175 395.703 820.772 395.373C821.37 395.031 821.839 394.562 822.18 393.965C822.522 393.357 822.692 392.679 822.692 391.933C822.692 391.186 822.522 390.514 822.18 389.917C821.839 389.309 821.37 388.839 820.772 388.509C820.175 388.167 819.503 387.997 818.756 387.997C818.01 387.997 817.338 388.167 816.74 388.509C816.143 388.839 815.674 389.309 815.332 389.917C814.991 390.514 814.82 391.186 814.82 391.933C814.82 392.679 814.991 393.357 815.332 393.965C815.674 394.562 816.143 395.031 816.74 395.373C817.338 395.703 818.01 395.869 818.756 395.869ZM835.319 385.661V397.533H833.399V396.429C833.068 396.834 832.658 397.138 832.167 397.341C831.687 397.543 831.154 397.645 830.567 397.645C829.746 397.645 829.004 397.463 828.343 397.101C827.692 396.738 827.18 396.226 826.807 395.565C826.434 394.893 826.247 394.125 826.247 393.261C826.247 392.397 826.434 391.634 826.807 390.973C827.18 390.311 827.692 389.799 828.343 389.437C829.004 389.074 829.746 388.893 830.567 388.893C831.132 388.893 831.65 388.989 832.119 389.181C832.588 389.373 832.988 389.661 833.319 390.045V385.661H835.319ZM830.807 395.933C831.287 395.933 831.719 395.826 832.103 395.613C832.487 395.389 832.791 395.074 833.015 394.669C833.239 394.263 833.351 393.794 833.351 393.261C833.351 392.727 833.239 392.258 833.015 391.853C832.791 391.447 832.487 391.138 832.103 390.925C831.719 390.701 831.287 390.589 830.807 390.589C830.327 390.589 829.895 390.701 829.511 390.925C829.127 391.138 828.823 391.447 828.599 391.853C828.375 392.258 828.263 392.727 828.263 393.261C828.263 393.794 828.375 394.263 828.599 394.669C828.823 395.074 829.127 395.389 829.511 395.613C829.895 395.826 830.327 395.933 830.807 395.933ZM846.117 393.309C846.117 393.447 846.107 393.645 846.085 393.901H839.381C839.499 394.53 839.803 395.031 840.293 395.405C840.795 395.767 841.413 395.949 842.149 395.949C843.088 395.949 843.861 395.639 844.469 395.021L845.541 396.253C845.157 396.711 844.672 397.058 844.085 397.293C843.499 397.527 842.837 397.645 842.101 397.645C841.163 397.645 840.336 397.458 839.621 397.085C838.907 396.711 838.352 396.194 837.957 395.533C837.573 394.861 837.381 394.103 837.381 393.261C837.381 392.429 837.568 391.682 837.941 391.021C838.325 390.349 838.853 389.826 839.525 389.453C840.197 389.079 840.955 388.893 841.797 388.893C842.629 388.893 843.371 389.079 844.021 389.453C844.683 389.815 845.195 390.333 845.557 391.005C845.931 391.666 846.117 392.434 846.117 393.309ZM841.797 390.493C841.157 390.493 840.613 390.685 840.165 391.069C839.728 391.442 839.461 391.943 839.365 392.573H844.213C844.128 391.954 843.867 391.453 843.429 391.069C842.992 390.685 842.448 390.493 841.797 390.493ZM850.829 397.645C850.135 397.645 849.458 397.554 848.797 397.373C848.135 397.191 847.607 396.962 847.213 396.685L847.981 395.165C848.365 395.421 848.823 395.629 849.357 395.789C849.901 395.938 850.434 396.013 850.957 396.013C852.151 396.013 852.749 395.698 852.749 395.069C852.749 394.77 852.594 394.562 852.285 394.445C851.986 394.327 851.501 394.215 850.829 394.109C850.125 394.002 849.549 393.879 849.101 393.741C848.663 393.602 848.279 393.362 847.949 393.021C847.629 392.669 847.469 392.183 847.469 391.565C847.469 390.754 847.805 390.109 848.477 389.629C849.159 389.138 850.077 388.893 851.229 388.893C851.815 388.893 852.402 388.962 852.989 389.101C853.575 389.229 854.055 389.405 854.429 389.629L853.661 391.149C852.935 390.722 852.119 390.509 851.213 390.509C850.626 390.509 850.178 390.599 849.869 390.781C849.57 390.951 849.421 391.181 849.421 391.469C849.421 391.789 849.581 392.018 849.901 392.157C850.231 392.285 850.738 392.407 851.421 392.525C852.103 392.631 852.663 392.754 853.101 392.893C853.538 393.031 853.911 393.266 854.221 393.597C854.541 393.927 854.701 394.397 854.701 395.005C854.701 395.805 854.354 396.445 853.661 396.925C852.967 397.405 852.023 397.645 850.829 397.645ZM859.837 388.893C861.096 388.893 862.056 389.197 862.717 389.805C863.389 390.402 863.725 391.309 863.725 392.525V397.533H861.837V396.493C861.592 396.866 861.24 397.154 860.781 397.357C860.333 397.549 859.789 397.645 859.149 397.645C858.509 397.645 857.949 397.538 857.469 397.325C856.989 397.101 856.616 396.797 856.349 396.413C856.093 396.018 855.965 395.575 855.965 395.085C855.965 394.317 856.248 393.703 856.813 393.245C857.389 392.775 858.29 392.541 859.517 392.541H861.725V392.413C861.725 391.815 861.544 391.357 861.181 391.037C860.829 390.717 860.301 390.557 859.597 390.557C859.117 390.557 858.642 390.631 858.173 390.781C857.714 390.93 857.325 391.138 857.005 391.405L856.221 389.949C856.669 389.607 857.208 389.346 857.837 389.165C858.466 388.983 859.133 388.893 859.837 388.893ZM859.565 396.189C860.066 396.189 860.509 396.077 860.893 395.853C861.288 395.618 861.565 395.287 861.725 394.861V393.869H859.661C858.509 393.869 857.933 394.247 857.933 395.005C857.933 395.367 858.077 395.655 858.365 395.869C858.653 396.082 859.053 396.189 859.565 396.189Z" fill="white"/>
<circle cx="838.5" cy="407.533" r="3" fill="white"/>
<path d="M955.572 338.773V340.533H946.02V339.141L952.612 331.093H946.132V329.333H955.364V330.725L948.772 338.773H955.572ZM960.731 331.893C961.989 331.893 962.949 332.197 963.611 332.805C964.283 333.402 964.619 334.309 964.619 335.525V340.533H962.731V339.493C962.485 339.866 962.133 340.154 961.675 340.357C961.227 340.549 960.683 340.645 960.043 340.645C959.403 340.645 958.843 340.538 958.363 340.325C957.883 340.101 957.509 339.797 957.243 339.413C956.987 339.018 956.859 338.575 956.859 338.085C956.859 337.317 957.141 336.703 957.707 336.245C958.283 335.775 959.184 335.541 960.411 335.541H962.619V335.413C962.619 334.815 962.437 334.357 962.075 334.037C961.723 333.717 961.195 333.557 960.491 333.557C960.011 333.557 959.536 333.631 959.067 333.781C958.608 333.93 958.219 334.138 957.899 334.405L957.115 332.949C957.563 332.607 958.101 332.346 958.731 332.165C959.36 331.983 960.027 331.893 960.731 331.893ZM960.459 339.189C960.96 339.189 961.403 339.077 961.787 338.853C962.181 338.618 962.459 338.287 962.619 337.861V336.869H960.555C959.403 336.869 958.827 337.247 958.827 338.005C958.827 338.367 958.971 338.655 959.259 338.869C959.547 339.082 959.947 339.189 960.459 339.189ZM972.071 331.893C972.903 331.893 973.645 332.074 974.295 332.437C974.957 332.799 975.474 333.311 975.847 333.973C976.221 334.634 976.407 335.397 976.407 336.261C976.407 337.125 976.221 337.893 975.847 338.565C975.474 339.226 974.957 339.738 974.295 340.101C973.645 340.463 972.903 340.645 972.071 340.645C970.919 340.645 970.007 340.261 969.335 339.493V343.637H967.335V331.989H969.239V333.109C969.57 332.703 969.975 332.399 970.455 332.197C970.946 331.994 971.485 331.893 972.071 331.893ZM971.847 338.933C972.583 338.933 973.186 338.687 973.655 338.197C974.135 337.706 974.375 337.061 974.375 336.261C974.375 335.461 974.135 334.815 973.655 334.325C973.186 333.834 972.583 333.589 971.847 333.589C971.367 333.589 970.935 333.701 970.551 333.925C970.167 334.138 969.863 334.447 969.639 334.853C969.415 335.258 969.303 335.727 969.303 336.261C969.303 336.794 969.415 337.263 969.639 337.669C969.863 338.074 970.167 338.389 970.551 338.613C970.935 338.826 971.367 338.933 971.847 338.933ZM982.294 340.645C981.43 340.645 980.652 340.458 979.958 340.085C979.265 339.711 978.721 339.194 978.326 338.533C977.942 337.861 977.75 337.103 977.75 336.261C977.75 335.418 977.942 334.666 978.326 334.005C978.721 333.343 979.265 332.826 979.958 332.453C980.652 332.079 981.43 331.893 982.294 331.893C983.169 331.893 983.953 332.079 984.646 332.453C985.34 332.826 985.878 333.343 986.262 334.005C986.657 334.666 986.854 335.418 986.854 336.261C986.854 337.103 986.657 337.861 986.262 338.533C985.878 339.194 985.34 339.711 984.646 340.085C983.953 340.458 983.169 340.645 982.294 340.645ZM982.294 338.933C983.03 338.933 983.638 338.687 984.118 338.197C984.598 337.706 984.838 337.061 984.838 336.261C984.838 335.461 984.598 334.815 984.118 334.325C983.638 333.834 983.03 333.589 982.294 333.589C981.558 333.589 980.95 333.834 980.47 334.325C980.001 334.815 979.766 335.461 979.766 336.261C979.766 337.061 980.001 337.706 980.47 338.197C980.95 338.687 981.558 338.933 982.294 338.933ZM990.821 333.237C991.397 332.341 992.41 331.893 993.861 331.893V333.797C993.69 333.765 993.535 333.749 993.397 333.749C992.618 333.749 992.01 333.978 991.573 334.437C991.135 334.885 990.917 335.535 990.917 336.389V340.533H988.917V331.989H990.821V333.237ZM995.707 331.989H997.707V340.533H995.707V331.989ZM996.715 330.581C996.353 330.581 996.049 330.469 995.803 330.245C995.558 330.01 995.435 329.722 995.435 329.381C995.435 329.039 995.558 328.757 995.803 328.533C996.049 328.298 996.353 328.181 996.715 328.181C997.078 328.181 997.382 328.293 997.627 328.517C997.873 328.73 997.995 329.002 997.995 329.333C997.995 329.685 997.873 329.983 997.627 330.229C997.393 330.463 997.089 330.581 996.715 330.581ZM1007.15 338.933V340.533H999.778V339.269L1004.47 333.589H999.874V331.989H1007.03V333.253L1002.32 338.933H1007.15ZM1014 331.893C1015.07 331.893 1015.94 332.207 1016.59 332.837C1017.24 333.466 1017.56 334.399 1017.56 335.637V340.533H1015.56V335.893C1015.56 335.146 1015.39 334.586 1015.04 334.213C1014.68 333.829 1014.18 333.637 1013.53 333.637C1012.8 333.637 1012.21 333.861 1011.79 334.309C1011.36 334.746 1011.15 335.381 1011.15 336.213V340.533H1009.15V328.661H1011.15V332.981C1011.48 332.629 1011.88 332.362 1012.36 332.181C1012.85 331.989 1013.4 331.893 1014 331.893ZM1028.09 331.989L1024.09 341.221C1023.72 342.149 1023.27 342.799 1022.73 343.173C1022.2 343.557 1021.56 343.749 1020.8 343.749C1020.37 343.749 1019.95 343.679 1019.53 343.541C1019.12 343.402 1018.78 343.21 1018.51 342.965L1019.31 341.493C1019.5 341.674 1019.73 341.818 1019.98 341.925C1020.25 342.031 1020.52 342.085 1020.78 342.085C1021.13 342.085 1021.42 341.994 1021.65 341.813C1021.88 341.631 1022.09 341.327 1022.29 340.901L1022.43 340.565L1018.7 331.989H1020.78L1023.47 338.309L1026.17 331.989H1028.09ZM1032.49 331.893C1033.75 331.893 1034.71 332.197 1035.37 332.805C1036.05 333.402 1036.38 334.309 1036.38 335.525V340.533H1034.49V339.493C1034.25 339.866 1033.9 340.154 1033.44 340.357C1032.99 340.549 1032.45 340.645 1031.81 340.645C1031.17 340.645 1030.61 340.538 1030.13 340.325C1029.65 340.101 1029.27 339.797 1029.01 339.413C1028.75 339.018 1028.62 338.575 1028.62 338.085C1028.62 337.317 1028.9 336.703 1029.47 336.245C1030.05 335.775 1030.95 335.541 1032.17 335.541H1034.38V335.413C1034.38 334.815 1034.2 334.357 1033.84 334.037C1033.49 333.717 1032.96 333.557 1032.25 333.557C1031.77 333.557 1031.3 333.631 1030.83 333.781C1030.37 333.93 1029.98 334.138 1029.66 334.405L1028.88 332.949C1029.33 332.607 1029.86 332.346 1030.49 332.165C1031.12 331.983 1031.79 331.893 1032.49 331.893ZM1032.22 339.189C1032.72 339.189 1033.17 339.077 1033.55 338.853C1033.94 338.618 1034.22 338.287 1034.38 337.861V336.869H1032.32C1031.17 336.869 1030.59 337.247 1030.59 338.005C1030.59 338.367 1030.73 338.655 1031.02 338.869C1031.31 339.082 1031.71 339.189 1032.22 339.189Z" fill="white"/>
<circle cx="991.5" cy="350.533" r="3" fill="white"/>
<path d="M669.727 199.868C669.6 199.331 669.062 198.998 668.524 199.124L659.765 201.19C659.227 201.317 658.894 201.856 659.021 202.393C659.148 202.931 659.686 203.264 660.224 203.137L668.01 201.301L669.847 209.087C669.973 209.624 670.512 209.957 671.049 209.831C671.587 209.704 671.92 209.165 671.793 208.628L669.727 199.868ZM591 243.533C591.032 244.532 591.032 244.532 591.032 244.532C591.033 244.532 591.033 244.532 591.034 244.532C591.035 244.532 591.037 244.532 591.039 244.532C591.043 244.532 591.049 244.532 591.057 244.531C591.073 244.531 591.097 244.53 591.128 244.529C591.189 244.527 591.281 244.523 591.4 244.518C591.638 244.508 591.988 244.492 592.439 244.468C593.341 244.42 594.645 244.339 596.26 244.209C599.489 243.95 603.968 243.494 608.968 242.708C618.928 241.142 631.103 238.244 639.537 232.876L638.463 231.189C630.397 236.322 618.572 239.173 608.657 240.732C603.719 241.509 599.292 241.959 596.1 242.216C594.504 242.344 593.218 242.423 592.332 242.471C591.889 242.494 591.547 242.51 591.316 242.52C591.2 242.525 591.112 242.528 591.054 242.53C591.025 242.531 591.003 242.532 590.989 242.533C590.981 242.533 590.976 242.533 590.973 242.533C590.971 242.533 590.97 242.533 590.969 242.533C590.969 242.533 590.969 242.533 590.968 242.533C590.968 242.533 590.968 242.533 591 243.533ZM639.537 232.876C647.923 227.54 655.442 219.457 660.843 212.755C663.55 209.396 665.737 206.368 667.248 204.179C668.004 203.084 668.591 202.198 668.99 201.585C669.19 201.278 669.343 201.039 669.446 200.876C669.497 200.795 669.537 200.732 669.563 200.69C669.576 200.669 669.586 200.653 669.593 200.641C669.597 200.636 669.599 200.632 669.601 200.629C669.602 200.627 669.603 200.626 669.603 200.625C669.604 200.625 669.604 200.624 669.604 200.624C669.604 200.624 669.604 200.624 668.754 200.098C667.903 199.572 667.903 199.572 667.903 199.572C667.903 199.572 667.903 199.572 667.903 199.572C667.903 199.573 667.902 199.573 667.902 199.575C667.9 199.577 667.898 199.58 667.895 199.585C667.889 199.595 667.88 199.609 667.868 199.629C667.843 199.668 667.806 199.728 667.756 199.806C667.657 199.962 667.509 200.194 667.314 200.494C666.924 201.094 666.347 201.964 665.602 203.043C664.113 205.201 661.955 208.188 659.286 211.5C653.935 218.14 646.577 226.026 638.463 231.189L639.537 232.876Z" fill="#FFD700"/>
<path d="M825.931 209.898C826.133 209.384 825.88 208.804 825.366 208.602L816.989 205.311C816.475 205.109 815.894 205.362 815.693 205.876C815.491 206.39 815.744 206.971 816.258 207.173L823.704 210.098L820.778 217.544C820.576 218.058 820.829 218.638 821.344 218.84C821.858 219.042 822.438 218.789 822.64 218.275L825.931 209.898ZM591.5 244.033C591.356 245.022 591.357 245.022 591.357 245.022C591.358 245.023 591.359 245.023 591.36 245.023C591.362 245.023 591.365 245.024 591.369 245.024C591.377 245.025 591.388 245.027 591.404 245.029C591.434 245.034 591.48 245.04 591.54 245.048C591.661 245.065 591.84 245.09 592.075 245.122C592.546 245.187 593.243 245.279 594.149 245.394C595.961 245.623 598.611 245.941 601.966 246.293C608.676 246.998 618.21 247.843 629.513 248.406C652.11 249.533 681.811 249.536 710.157 245.02L709.843 243.045C681.689 247.53 652.14 247.532 629.612 246.409C618.352 245.848 608.855 245.005 602.175 244.304C598.835 243.953 596.199 243.637 594.4 243.41C593.5 243.296 592.81 243.204 592.345 243.141C592.113 243.109 591.937 243.085 591.819 243.068C591.76 243.06 591.716 243.053 591.687 243.049C591.672 243.047 591.661 243.046 591.654 243.045C591.65 243.044 591.648 243.044 591.646 243.043C591.645 243.043 591.645 243.043 591.644 243.043C591.644 243.043 591.644 243.043 591.5 244.033ZM710.157 245.02C738.489 240.507 767.3 231.862 789.014 224.353C799.875 220.597 808.967 217.123 815.346 214.587C818.535 213.319 821.047 212.285 822.762 211.569C823.619 211.21 824.278 210.931 824.722 210.741C824.944 210.646 825.113 210.573 825.227 210.524C825.284 210.5 825.326 210.481 825.355 210.469C825.37 210.462 825.381 210.458 825.388 210.454C825.392 210.453 825.395 210.452 825.397 210.451C825.397 210.45 825.398 210.45 825.399 210.45C825.399 210.449 825.4 210.449 825 209.533C824.6 208.616 824.6 208.616 824.6 208.616C824.6 208.616 824.599 208.617 824.598 208.617C824.597 208.618 824.594 208.619 824.591 208.62C824.584 208.623 824.573 208.628 824.559 208.634C824.532 208.646 824.49 208.664 824.434 208.688C824.323 208.736 824.156 208.808 823.936 208.902C823.496 209.09 822.843 209.367 821.99 209.723C820.285 210.436 817.785 211.465 814.607 212.728C808.251 215.255 799.188 218.718 788.361 222.463C766.7 229.953 738.011 238.558 709.843 243.045L710.157 245.02Z" fill="#FFD700"/>
<path d="M837.814 380.113C837.494 380.563 836.87 380.668 836.42 380.347L829.09 375.125C828.64 374.805 828.535 374.18 828.855 373.731C829.176 373.281 829.8 373.176 830.25 373.496L836.766 378.138L841.407 371.622C841.728 371.172 842.352 371.068 842.802 371.388C843.252 371.708 843.357 372.333 843.036 372.783L837.814 380.113ZM592 244.479C592.227 243.505 592.228 243.505 592.229 243.505C592.23 243.505 592.231 243.506 592.233 243.506C592.237 243.507 592.243 243.508 592.251 243.51C592.268 243.514 592.291 243.52 592.323 243.527C592.387 243.542 592.482 243.564 592.607 243.594C592.858 243.653 593.231 243.74 593.719 243.856C594.696 244.086 596.135 244.428 597.985 244.871C601.685 245.756 607.027 247.049 613.601 248.674C626.747 251.924 644.818 256.506 664.515 261.835C703.881 272.485 749.835 286.143 775.917 298.124L775.083 299.941C749.175 288.041 703.38 274.422 663.993 263.765C644.313 258.441 626.257 253.863 613.121 250.615C606.553 248.991 601.215 247.701 597.52 246.816C595.672 246.373 594.235 246.032 593.26 245.802C592.772 245.687 592.4 245.599 592.15 245.541C592.025 245.511 591.931 245.489 591.868 245.475C591.836 245.467 591.812 245.462 591.797 245.458C591.789 245.456 591.783 245.455 591.779 245.454C591.777 245.453 591.775 245.453 591.774 245.453C591.773 245.452 591.773 245.452 592 244.479ZM775.917 298.124C802.175 310.185 817.691 330.509 826.634 347.778C831.107 356.414 833.942 364.298 835.66 370.026C836.519 372.89 837.099 375.217 837.465 376.832C837.648 377.64 837.778 378.269 837.862 378.699C837.904 378.914 837.935 379.079 837.955 379.191C837.965 379.247 837.973 379.29 837.978 379.32C837.981 379.334 837.983 379.346 837.984 379.354C837.985 379.358 837.985 379.361 837.985 379.363C837.986 379.364 837.986 379.365 837.986 379.366C837.986 379.366 837.986 379.367 837 379.533C836.014 379.698 836.014 379.699 836.014 379.699C836.014 379.698 836.014 379.698 836.014 379.697C836.013 379.696 836.013 379.694 836.013 379.691C836.012 379.685 836.01 379.676 836.008 379.664C836.003 379.639 835.997 379.6 835.987 379.548C835.968 379.445 835.939 379.289 835.899 379.083C835.819 378.672 835.693 378.062 835.515 377.274C835.158 375.7 834.589 373.417 833.744 370.6C832.054 364.966 829.262 357.202 824.858 348.698C816.049 331.687 800.814 311.761 775.083 299.941L775.917 298.124Z" fill="#FFD700"/>
<path d="M987.517 350.177C987.99 350.463 988.141 351.078 987.856 351.55L983.199 359.252C982.913 359.724 982.298 359.876 981.826 359.59C981.353 359.304 981.202 358.689 981.487 358.217L985.627 351.371L978.781 347.232C978.308 346.946 978.157 346.331 978.443 345.859C978.728 345.386 979.343 345.234 979.816 345.52L987.517 350.177ZM589 244.533C589.077 243.536 589.078 243.536 589.08 243.536C589.082 243.536 589.084 243.536 589.088 243.537C589.095 243.537 589.105 243.538 589.119 243.539C589.147 243.541 589.188 243.544 589.243 243.549C589.352 243.557 589.515 243.57 589.731 243.588C590.161 243.623 590.8 243.675 591.635 243.746C593.305 243.887 595.761 244.101 598.904 244.392C605.19 244.975 614.225 245.866 625.229 247.101C647.234 249.572 677.115 253.418 708.61 258.923C740.1 264.426 773.228 271.592 801.719 280.705C830.164 289.804 854.156 300.895 867.217 314.336L865.783 315.73C853.094 302.671 829.524 291.699 801.109 282.61C772.741 273.536 739.713 266.389 708.265 260.893C676.823 255.397 646.985 251.556 625.006 249.089C614.017 247.855 604.994 246.965 598.719 246.384C595.582 246.093 593.132 245.88 591.466 245.739C590.634 245.668 589.997 245.616 589.569 245.581C589.355 245.564 589.193 245.551 589.085 245.542C589.031 245.538 588.99 245.535 588.963 245.533C588.95 245.532 588.939 245.531 588.933 245.53C588.929 245.53 588.927 245.53 588.925 245.53C588.924 245.53 588.923 245.53 589 244.533ZM867.217 314.336C892.76 340.623 922.64 349.554 946.162 351.913C957.925 353.092 968.089 352.626 975.309 351.866C978.919 351.486 981.79 351.033 983.756 350.676C984.738 350.497 985.494 350.343 986.002 350.233C986.256 350.178 986.448 350.135 986.575 350.106C986.639 350.091 986.686 350.08 986.717 350.072C986.733 350.068 986.744 350.066 986.752 350.064C986.755 350.063 986.758 350.062 986.759 350.062C986.76 350.062 986.76 350.062 986.761 350.062C986.761 350.062 986.761 350.062 987 351.033C987.239 352.004 987.239 352.004 987.238 352.004C987.237 352.004 987.236 352.005 987.234 352.005C987.232 352.006 987.228 352.006 987.223 352.008C987.214 352.01 987.2 352.013 987.182 352.017C987.146 352.026 987.094 352.038 987.026 352.054C986.889 352.086 986.687 352.131 986.423 352.188C985.895 352.302 985.118 352.461 984.113 352.644C982.104 353.009 979.183 353.47 975.519 353.855C968.192 354.627 957.888 355.098 945.963 353.903C922.11 351.511 891.74 342.442 865.783 315.73L867.217 314.336Z" fill="#FFD700"/>
<path d="M1025.82 234.479C1026.35 234.301 1026.62 233.732 1026.45 233.21L1023.54 224.692C1023.36 224.169 1022.79 223.89 1022.27 224.069C1021.75 224.247 1021.47 224.816 1021.65 225.338L1024.23 232.909L1016.66 235.493C1016.14 235.672 1015.86 236.24 1016.04 236.763C1016.21 237.286 1016.78 237.565 1017.31 237.386L1025.82 234.479ZM589.5 244.533C589.373 245.525 589.373 245.525 589.375 245.525C589.376 245.525 589.379 245.525 589.381 245.526C589.387 245.526 589.396 245.528 589.407 245.529C589.429 245.532 589.463 245.536 589.507 245.542C589.596 245.553 589.729 245.57 589.904 245.592C590.255 245.635 590.776 245.699 591.459 245.782C592.827 245.947 594.843 246.184 597.444 246.476C602.646 247.058 610.186 247.856 619.541 248.716C638.25 250.436 664.223 252.406 693.278 253.407C751.348 255.407 821.873 253.542 871.3 237.987L870.7 236.079C821.626 251.523 751.402 253.408 693.347 251.408C664.339 250.409 638.406 248.442 619.724 246.724C610.384 245.866 602.857 245.07 597.667 244.488C595.072 244.197 593.061 243.96 591.699 243.796C591.018 243.714 590.5 243.65 590.152 243.607C589.978 243.585 589.846 243.569 589.759 243.558C589.715 243.552 589.682 243.548 589.66 243.545C589.649 243.544 589.641 243.543 589.635 243.542C589.633 243.542 589.631 243.541 589.629 243.541C589.628 243.541 589.627 243.541 589.5 244.533ZM871.3 237.987C920.413 222.53 958.897 221.667 985.074 224.651C998.165 226.144 1008.18 228.599 1014.92 230.676C1018.28 231.714 1020.83 232.658 1022.53 233.34C1023.38 233.681 1024.02 233.956 1024.44 234.145C1024.65 234.239 1024.81 234.312 1024.91 234.36C1024.96 234.384 1025 234.403 1025.03 234.414C1025.04 234.42 1025.05 234.425 1025.05 234.427C1025.06 234.429 1025.06 234.43 1025.06 234.43C1025.06 234.43 1025.06 234.43 1025.06 234.43C1025.06 234.43 1025.06 234.43 1025.5 233.533C1025.94 232.635 1025.94 232.635 1025.94 232.634C1025.94 232.634 1025.94 232.633 1025.94 232.633C1025.93 232.632 1025.93 232.63 1025.93 232.628C1025.92 232.624 1025.91 232.619 1025.89 232.611C1025.86 232.597 1025.82 232.576 1025.76 232.549C1025.65 232.496 1025.48 232.418 1025.25 232.318C1024.81 232.119 1024.15 231.834 1023.27 231.483C1021.53 230.782 1018.93 229.82 1015.51 228.765C1008.66 226.654 998.523 224.172 985.301 222.664C958.853 219.649 920.087 220.536 870.7 236.079L871.3 237.987Z" fill="#FFD700"/>
<path d="M575.732 222.333H577.812V231.773H583.668V233.533H575.732V222.333ZM592.659 224.989L588.995 233.533H586.931L583.267 224.989H585.347L588.003 231.325L590.739 224.989H592.659ZM594.059 224.989H596.059V233.533H594.059V224.989ZM595.067 223.581C594.704 223.581 594.4 223.469 594.155 223.245C593.91 223.01 593.787 222.722 593.787 222.381C593.787 222.039 593.91 221.757 594.155 221.533C594.4 221.298 594.704 221.181 595.067 221.181C595.43 221.181 595.734 221.293 595.979 221.517C596.224 221.73 596.347 222.002 596.347 222.333C596.347 222.685 596.224 222.983 595.979 223.229C595.744 223.463 595.44 223.581 595.067 223.581ZM606.834 224.989L603.17 233.533H601.106L597.442 224.989H599.522L602.178 231.325L604.914 224.989H606.834Z" fill="white"/>
<circle cx="590.5" cy="243.533" r="3" fill="white"/>
<g filter="url(#filter1_d_2_123)">
<path d="M551.381 239.62C553.107 239.1 554.371 237.597 554.533 235.806C554.697 234.103 554.885 232.303 554.848 232.198C554.498 231.205 556.737 229.887 557.599 230.583C562.524 234.636 569.635 237.889 573.759 239.168C579.936 241.105 575.273 243.63 569.014 245.131C564.736 246.168 559.781 248.031 553.86 250.823C552.094 251.651 551.947 251.233 552.871 247.851C553.986 243.844 554.008 243.572 553.247 243.664C547.774 244.476 543.199 246.588 539.798 249.108C538.006 250.445 537.919 250.446 537.712 249.109C536.92 243.776 551.676 239.457 551.381 239.62Z" fill="#FFD700"/>
<path d="M515.305 257.152C517.475 256.387 526.856 251.906 528.303 250.926C529.897 249.865 530.437 249.645 530.566 250.011C531.524 252.729 528.768 255.082 519.845 259.196C514.088 261.871 512.851 262.277 512.611 261.598C512.022 259.925 513.24 257.879 515.305 257.152Z" fill="#FFD700"/>
<path d="M447.537 258.428C449.619 259.407 459.445 262.803 461.163 263.121C463.044 263.485 463.582 263.708 463.417 264.059C462.191 266.667 458.577 266.407 449.335 263.071C443.358 260.934 442.191 260.354 442.497 259.702C443.252 258.097 445.556 257.496 447.537 258.428Z" fill="#FFD700"/>
<path d="M492.92 263.336C495.753 262.955 498.348 262.481 501.938 261.745C512.7 259.598 507.322 263.932 505.745 264.458C498.938 266.739 492.304 267.843 491.703 267.555C490.855 267.149 491.905 263.459 492.92 263.336Z" fill="#FFD700"/>
<path d="M427.256 247.114C429.541 248.832 431.721 250.316 434.794 252.313C443.965 258.34 437.092 257.65 435.599 256.918C429.151 253.763 423.653 249.89 423.427 249.264C423.108 248.379 426.447 246.488 427.256 247.114Z" fill="#FFD700"/>
<path d="M474.862 263.705C483.017 263.917 487.318 264.781 486.859 266.148C486.032 268.555 473.299 269.193 472.216 266.871C471.542 265.375 472.985 263.632 474.862 263.705Z" fill="#FFD700"/>
<path d="M414.138 234.697C419.797 240.574 422.252 244.209 420.966 244.86C418.687 245.993 409.173 237.507 410.032 235.094C410.602 233.555 412.853 233.327 414.138 234.697Z" fill="#FFD700"/>
<path d="M510.707 271.575C509.06 273.18 502.43 281.189 501.529 282.686C500.528 284.319 500.131 284.746 499.86 284.468C497.849 282.404 499.361 279.111 505.729 271.628C509.828 266.782 510.78 265.892 511.283 266.408C512.521 267.679 512.275 270.047 510.707 271.575Z" fill="#FFD700"/>
<path d="M487.667 307.419C486.458 310.009 485.454 312.449 484.134 315.867C480.127 326.083 479.385 319.216 479.794 317.604C481.552 310.644 484.208 304.466 484.774 304.116C485.575 303.621 488.113 306.499 487.667 307.419Z" fill="#FFD700"/>
<path d="M497.113 292.023C492.529 298.771 489.478 301.923 488.576 300.799C486.997 298.803 493.34 287.743 495.879 288.087C497.502 288.328 498.189 290.483 497.113 292.023Z" fill="#FFD700"/>
</g>
<path d="M468.381 279.205C470.603 278.61 480.301 274.864 481.819 273.998C483.491 273.062 484.046 272.885 484.146 273.26C484.892 276.044 481.964 278.177 472.751 281.592C466.805 283.817 465.54 284.127 465.354 283.431C464.894 281.718 466.267 279.772 468.381 279.205Z" fill="#FFD700"/>
<path d="M456.149 288.484C453.375 289.176 450.848 289.934 447.362 291.062C436.903 294.386 441.769 289.484 443.279 288.786C449.791 285.767 456.262 283.936 456.891 284.156C457.779 284.466 457.144 288.25 456.149 288.484Z" fill="#FFD700"/>
<path d="M439.392 375.472C441.404 374.358 449.911 368.382 451.176 367.176C452.572 365.864 453.068 365.558 453.256 365.898C454.651 368.419 452.324 371.196 444.208 376.734C438.975 380.327 437.822 380.934 437.473 380.304C436.614 378.752 437.476 376.532 439.392 375.472Z" fill="#FFD700"/>
<path d="M469.947 341.56C471.297 339.04 472.433 336.659 473.939 333.318C478.501 323.338 478.864 330.235 478.367 331.822C476.23 338.675 473.24 344.698 472.655 345.017C471.829 345.467 469.452 342.454 469.947 341.56Z" fill="#FFD700"/>
<path d="M418.471 296.231C421.278 295.692 423.843 295.074 427.386 294.139C438.011 291.394 432.884 296.021 431.338 296.635C424.67 299.293 418.108 300.766 417.492 300.512C416.622 300.154 417.465 296.41 418.471 296.231Z" fill="#FFD700"/>
<path d="M418.343 385.286C421.074 384.44 423.554 383.542 426.972 382.22C437.228 378.317 432.644 383.483 431.176 384.264C424.843 387.643 418.484 389.833 417.844 389.649C416.94 389.389 417.363 385.575 418.343 385.286Z" fill="#FFD700"/>
<path d="M459.671 356.414C464.619 349.928 467.838 346.948 468.677 348.12C470.144 350.2 463.204 360.895 460.688 360.413C459.08 360.083 458.513 357.893 459.671 356.414Z" fill="#FFD700"/>
<rect x="335" y="178" width="70" height="70" rx="35" fill="white"/>
<rect x="367" y="198" width="5" height="29" rx="1" fill="#E40000"/>
<rect x="384" y="210" width="5" height="29" rx="1" transform="rotate(90 384 210)" fill="#E40000"/>
<rect x="335" y="266" width="70" height="70" rx="35" fill="white"/>
<path d="M381.813 287.5V314.5C381.813 314.798 381.694 315.084 381.483 315.295C381.272 315.506 380.986 315.625 380.688 315.625C380.389 315.625 380.103 315.506 379.892 315.295C379.681 315.084 379.563 314.798 379.563 314.5V306.625H372.813C372.653 306.623 372.496 306.589 372.351 306.523C372.206 306.458 372.076 306.363 371.969 306.245C371.864 306.127 371.785 305.989 371.737 305.839C371.688 305.689 371.671 305.53 371.688 305.373C372.036 302.557 372.591 299.77 373.347 297.034C375.034 291.072 377.383 287.5 380.308 286.445C380.477 286.381 380.66 286.359 380.84 286.382C381.019 286.404 381.191 286.47 381.339 286.574C381.488 286.678 381.608 286.817 381.691 286.978C381.773 287.14 381.815 287.319 381.813 287.5V287.5ZM369.986 294.067L368.861 287.317C368.837 287.171 368.784 287.031 368.706 286.906C368.628 286.78 368.526 286.671 368.406 286.585C368.286 286.499 368.15 286.437 368.006 286.404C367.862 286.37 367.713 286.365 367.567 286.389C367.273 286.437 367.009 286.601 366.835 286.844C366.661 287.086 366.591 287.388 366.639 287.683L367.553 293.125H364.938V287.5C364.938 287.202 364.819 286.915 364.608 286.704C364.397 286.493 364.111 286.375 363.813 286.375C363.514 286.375 363.228 286.493 363.017 286.704C362.806 286.915 362.688 287.202 362.688 287.5V293.125H360.072L360.986 287.683C361.01 287.537 361.005 287.388 360.971 287.244C360.938 287.1 360.876 286.964 360.79 286.844C360.704 286.724 360.595 286.622 360.469 286.544C360.343 286.466 360.204 286.413 360.058 286.389C359.912 286.365 359.763 286.37 359.619 286.404C359.475 286.437 359.339 286.499 359.219 286.585C359.099 286.671 358.997 286.78 358.919 286.906C358.841 287.031 358.788 287.171 358.764 287.317L357.639 294.067C357.626 294.127 357.622 294.189 357.625 294.25C357.627 295.696 358.133 297.096 359.058 298.208C359.982 299.32 361.266 300.073 362.688 300.339V314.5C362.688 314.798 362.806 315.084 363.017 315.295C363.228 315.506 363.514 315.625 363.813 315.625C364.111 315.625 364.397 315.506 364.608 315.295C364.819 315.084 364.938 314.798 364.938 314.5V300.339C366.359 300.073 367.643 299.32 368.567 298.208C369.492 297.096 369.998 295.696 370 294.25C370.002 294.193 369.998 294.137 369.986 294.081V294.067Z" fill="black"/>
<rect x="335" y="354" width="70" height="70" rx="35" fill="white"/>
<path d="M382.075 379.488C381.397 378.727 380.57 378.114 379.646 377.686C378.721 377.258 377.719 377.024 376.7 377C375.682 376.978 374.671 377.161 373.726 377.539C372.781 377.917 371.922 378.482 371.2 379.2L370 380.388L369.063 379.463C366.15 376.538 361.4 376.288 358.488 378.925C357.73 379.605 357.118 380.432 356.691 381.357C356.264 382.281 356.03 383.283 356.003 384.301C355.976 385.319 356.157 386.331 356.535 387.277C356.912 388.222 357.479 389.081 358.2 389.8L368.588 400.188C368.772 400.374 368.992 400.523 369.235 400.624C369.477 400.725 369.737 400.777 370 400.777C370.263 400.777 370.523 400.725 370.765 400.624C371.008 400.523 371.228 400.374 371.413 400.188L381.538 390.063C384.463 387.15 384.7 382.4 382.075 379.488Z" fill="#E40000"/>
<defs>
<filter id="filter0_d_2_123" x="486.849" y="104.457" width="744.978" height="451.222" filterUnits="userSpaceOnUse" color-interpolation-filters="sRGB">
<feFlood flood-opacity="0" result="BackgroundImageFix"/>
<feColorMatrix in="SourceAlpha" type="matrix" values="0 0 0 0 0 0 0 0 0 0 0 0 0 0 0 0 0 0 127 0" result="hardAlpha"/>
<feOffset dy="13.0754"/>
<feGaussianBlur stdDeviation="13.0754"/>
<feColorMatrix type="matrix" values="0 0 0 0 0 0 0 0 0 0 0 0 0 0 0 0 0 0 0.01 0"/>
<feBlend mode="normal" in2="BackgroundImageFix" result="effect1_dropShadow_2_123"/>
<feBlend mode="normal" in="SourceGraphic" in2="effect1_dropShadow_2_123" result="shape"/>
</filter>
<filter id="filter1_d_2_123" x="401.977" y="173" width="200.416" height="157.394" filterUnits="userSpaceOnUse" color-interpolation-filters="sRGB">
<feFlood flood-opacity="0" result="BackgroundImageFix"/>
<feColorMatrix in="SourceAlpha" type="matrix" values="0 0 0 0 0 0 0 0 0 0 0 0 0 0 0 0 0 0 127 0" result="hardAlpha"/>
<feOffset/>
<feGaussianBlur stdDeviation="4"/>
<feComposite in2="hardAlpha" operator="out"/>
<feColorMatrix type="matrix" values="0 0 0 0 0 0 0 0 0 0.341176 0 0 0 0 0.717647 0 0 0 0.8 0"/>
<feBlend mode="normal" in2="BackgroundImageFix" result="effect1_dropShadow_2_123"/>
<feBlend mode="normal" in="SourceGraphic" in2="effect1_dropShadow_2_123" result="shape"/>
</filter>
</defs>
</svg>
