<svg width="14" height="14" viewBox="0 0 14 14" fill="none" xmlns="http://www.w3.org/2000/svg">
<path d="M11.5429 12.7071L12.25 13.4142L13.6642 12L12.9571 11.2929L11.5429 12.7071ZM2.95711 1.29289L2.25 0.585786L0.835786 2L1.54289 2.70711L2.95711 1.29289ZM12.9571 11.2929L2.95711 1.29289L1.54289 2.70711L11.5429 12.7071L12.9571 11.2929Z" fill="#686F7C"/>
<path d="M12.9571 2.70711L13.6642 2L12.25 0.585786L11.5429 1.29289L12.9571 2.70711ZM1.54289 11.2929L0.835786 12L2.25 13.4142L2.95711 12.7071L1.54289 11.2929ZM11.5429 1.29289L1.54289 11.2929L2.95711 12.7071L12.9571 2.70711L11.5429 1.29289Z" fill="#686F7C"/>
</svg>
