<svg width="32" height="32" viewBox="0 0 32 32" fill="none" xmlns="http://www.w3.org/2000/svg">
<path d="M14.9376 19.0624H12.0381C11.763 19.0667 11.4965 18.9665 11.2923 18.782C11.088 18.5974 10.9613 18.3421 10.9379 18.0678L10.9377 18.0664L10.9377 18.0664C10.9287 17.9213 10.9494 17.776 10.9987 17.6393C11.0481 17.5027 11.1249 17.3776 11.2245 17.2717C11.324 17.1659 11.4443 17.0817 11.5777 17.0242C11.7111 16.9667 11.8549 16.9372 12.0002 16.9374M14.9376 19.0624V16.9999V16.9374M14.9376 19.0624L14.9376 28.4124L14.9376 28.4128C14.9379 28.4741 14.9253 28.5348 14.9007 28.5909C14.876 28.6471 14.8398 28.6974 14.7944 28.7387C14.749 28.7799 14.6955 28.8112 14.6373 28.8304C14.5792 28.8496 14.5178 28.8563 14.457 28.8503M14.9376 19.0624L14.4501 28.9124M12.0002 16.9374L12.0001 16.9999V16.9374H12.0002ZM12.0002 16.9374H14.9376M14.9376 16.9374H15.0001V13.9999C15.0001 12.9391 15.4216 11.9217 16.1717 11.1715C16.9218 10.4214 17.9393 9.99995 19.0001 9.99995H20.9626M14.9376 16.9374V13.9999C14.9376 12.9225 15.3656 11.8892 16.1275 11.1273C16.8894 10.3655 17.9227 9.93745 19.0001 9.93745H20.9621M20.9621 9.93745C20.962 9.93745 20.9618 9.93745 20.9616 9.93746L20.9626 9.99995M20.9621 9.93745C21.2373 9.93322 21.5038 10.0334 21.708 10.2179C21.9123 10.4025 22.0389 10.6578 22.0624 10.9321L22.0625 10.9335L22.0625 10.9335C22.0716 11.0786 22.0508 11.2239 22.0015 11.3606C21.9522 11.4972 21.8754 11.6223 21.7758 11.7282C21.6762 11.834 21.556 11.9182 21.4225 11.9757C21.2891 12.0332 21.1453 12.0627 21 12.0624M20.9621 9.93745H20.9626V9.99995M20.9626 9.99995C21.2221 9.99584 21.4735 10.0903 21.6661 10.2643C21.8586 10.4383 21.978 10.6789 22.0001 10.9374L21 12.0624M21 12.0624L21.0001 11.9999V12.0624H21ZM20 19.0624C20.1453 19.0627 20.2891 19.0332 20.4225 18.9757C20.556 18.9182 20.6762 18.834 20.7758 18.7281C20.8754 18.6223 20.9522 18.4972 21.0015 18.3606C21.0508 18.2239 21.0716 18.0786 21.0625 17.9335L21.0624 17.9321C21.0389 17.6578 20.9123 17.4025 20.708 17.2179C20.5038 17.0334 20.2373 16.9332 19.9621 16.9374H17.0626V18.9999V19.0624M20 19.0624L20.0001 18.9999V19.0624H20ZM20 19.0624H17.0626M17.0626 19.0624H17.0001V28.4124M17.0626 19.0624V28.4118M17.0626 28.4118C17.0626 28.4116 17.0626 28.4114 17.0626 28.4112L17.0001 28.4124M17.0626 28.4118V28.4124H17.0001M17.0626 28.4118C17.0639 28.4737 17.078 28.5346 17.1038 28.5908C17.1298 28.6471 17.1672 28.6975 17.2136 28.7387C17.2599 28.78 17.3144 28.8112 17.3734 28.8303C17.4322 28.8495 17.4943 28.8563 17.5558 28.8503M17.0001 28.4124C17.0015 28.4831 17.0175 28.5527 17.0471 28.6169C17.0767 28.6811 17.1192 28.7385 17.172 28.7854C17.2249 28.8324 17.2868 28.8679 17.3541 28.8898C17.4213 28.9116 17.4923 28.9194 17.5626 28.9124M17.5626 28.9124L17.555 28.8504C17.5552 28.8504 17.5555 28.8504 17.5558 28.8503M17.5626 28.9124C20.7147 28.5227 23.6161 26.9957 25.7221 24.6181C27.8281 22.2406 28.9937 19.1761 29.0001 15.9999M17.5626 28.9124L17.5565 28.8502C17.5563 28.8503 17.556 28.8503 17.5558 28.8503M17.5558 28.8503C20.6925 28.4622 23.5796 26.9426 25.6753 24.5767C27.7711 22.2106 28.9312 19.1608 28.9376 16M29.0001 15.9999L28.9376 16.0003C28.9376 16.0002 28.9376 16.0001 28.9376 16M29.0001 15.9999L28.9376 15.9998C28.9376 15.9999 28.9376 15.9999 28.9376 16M29.0001 15.9999L3.01262 15.5124M28.9376 16C28.9175 12.6242 27.5787 9.39007 25.207 6.98778C22.8352 4.58539 19.6183 3.20524 16.243 3.14193C12.8677 3.07861 9.60131 4.33714 7.14109 6.64888C4.68091 8.96058 3.22176 12.1423 3.07507 15.515M3.07507 15.515C3.07507 15.5149 3.07508 15.5149 3.07508 15.5148L3.01262 15.5124M3.07507 15.515C3.07507 15.5151 3.07507 15.5151 3.07507 15.5152L3.01262 15.5124M3.07507 15.515C2.81394 22.3439 7.88889 28.0538 14.457 28.8503M3.01262 15.5124C2.75012 22.3749 7.85012 28.1124 14.4501 28.9124M14.457 28.8503C14.4568 28.8503 14.4566 28.8503 14.4564 28.8503L14.4501 28.9124M14.457 28.8503C14.4572 28.8503 14.4574 28.8504 14.4576 28.8504L14.4501 28.9124" fill="#0057B7" stroke="#0057B7" stroke-width="0.125"/>
</svg>
