<svg width="56" height="56" viewBox="0 0 56 56" fill="none" xmlns="http://www.w3.org/2000/svg">
<rect width="56" height="56" rx="28" fill="#FFD700"/>
<path d="M28 36.125C31.4518 36.125 34.25 33.3268 34.25 29.875C34.25 26.4232 31.4518 23.625 28 23.625C24.5482 23.625 21.75 26.4232 21.75 29.875C21.75 33.3268 24.5482 36.125 28 36.125Z" stroke="#0057B7" stroke-width="2" stroke-linecap="round" stroke-linejoin="round"/>
<path d="M38.625 26.125C40.0809 26.1226 41.5171 26.4604 42.8193 27.1114C44.1214 27.7625 45.2534 28.7089 46.125 29.875" stroke="#0057B7" stroke-width="2" stroke-linecap="round" stroke-linejoin="round"/>
<path d="M9.875 29.875C10.7466 28.7089 11.8786 27.7625 13.1807 27.1114C14.4829 26.4604 15.9191 26.1226 17.375 26.125" stroke="#0057B7" stroke-width="2" stroke-linecap="round" stroke-linejoin="round"/>
<path d="M19 41.75C19.8232 40.0642 21.1033 38.6435 22.6944 37.6497C24.2856 36.6559 26.124 36.129 28 36.129C29.876 36.129 31.7144 36.6559 33.3056 37.6497C34.8967 38.6435 36.1768 40.0642 37 41.75" stroke="#0057B7" stroke-width="2" stroke-linecap="round" stroke-linejoin="round"/>
<path d="M17.3752 26.125C16.4262 26.126 15.4965 25.8568 14.6948 25.3491C13.8931 24.8413 13.2524 24.1158 12.8477 23.2575C12.4429 22.3991 12.2908 21.4433 12.4091 20.5017C12.5274 19.5601 12.9112 18.6716 13.5157 17.9401C14.1202 17.2085 14.9204 16.6641 15.8229 16.3704C16.7253 16.0768 17.6926 16.046 18.6119 16.2817C19.5312 16.5173 20.3644 17.0098 21.0142 17.7014C21.664 18.3931 22.1035 19.2553 22.2814 20.1875" stroke="#0057B7" stroke-width="2" stroke-linecap="round" stroke-linejoin="round"/>
<path d="M33.7188 20.1875C33.8967 19.2553 34.3362 18.3931 34.986 17.7014C35.6358 17.0098 36.469 16.5173 37.3883 16.2817C38.3076 16.046 39.2749 16.0768 40.1773 16.3704C41.0797 16.6641 41.8799 17.2085 42.4844 17.9401C43.0889 18.6716 43.4728 19.5601 43.5911 20.5017C43.7094 21.4433 43.5573 22.3991 43.1525 23.2575C42.7478 24.1158 42.1071 24.8413 41.3054 25.3491C40.5037 25.8568 39.574 26.126 38.625 26.125" stroke="#0057B7" stroke-width="2" stroke-linecap="round" stroke-linejoin="round"/>
</svg>
