<svg width="845" height="202" viewBox="0 0 845 202" fill="none" xmlns="http://www.w3.org/2000/svg">
<mask id="path-1-inside-1_120_585" fill="white">
<path fill-rule="evenodd" clip-rule="evenodd" d="M836.739 80.624C832.613 84.4811 824.828 88.8215 819.443 90.2716C809.893 92.8438 809.781 92.9967 814.838 96.5381C826.929 105.008 835.066 136.795 826.03 140.261C824.026 141.031 822.387 143.183 822.387 145.043C822.387 146.904 820.747 148.427 818.744 148.427C816.74 148.427 815.093 149.792 815.083 151.463C815.059 156.146 799.825 165.429 792.162 165.429C783.981 165.429 771.03 157.86 763.814 148.861L758.594 142.354L760.195 151.225C763.282 168.344 754.23 190.488 746.18 185.511C743.788 184.032 733.361 183.607 731.911 184.928C730.944 185.807 722.674 186.82 707.597 187.903L693.607 188.909L690.789 179.502C688.475 171.771 688.693 167.802 692.028 157.226C694.258 150.146 696.084 143.739 696.084 142.986C696.084 142.233 690.991 143.149 684.768 145.021C670.372 149.354 661.643 149.325 651.072 144.907C641.704 140.994 640.783 138.495 646.571 132.707C650.183 129.095 650.144 128.393 646.061 123.883C642.277 119.702 642.143 118.663 645.153 116.805C647.786 115.177 647.98 113.924 645.923 111.867C644.113 110.057 643.858 106.477 645.187 101.442C646.297 97.2255 647.742 90.1258 648.393 85.6615C649.046 81.1996 651.3 75.6496 653.401 73.3276C655.502 71.0055 657.222 67.3063 657.222 65.1082C657.222 55.4266 689.505 49.4661 699.871 57.2313C704.207 60.4811 703.854 60.6512 695.477 59.342C689.483 58.4069 686.369 58.8611 686.369 60.6682C686.369 62.1789 689.373 63.5415 693.048 63.697C697.84 63.8986 698.355 64.2702 694.87 65.0062C677.766 68.6228 677.44 68.9385 688.623 71.0201C703.85 73.8595 705.407 76.9321 691.11 75.9313C683.493 75.3994 679.082 76.0674 679.082 77.753C679.082 79.2201 682.087 80.4953 685.762 80.5876C689.437 80.6823 694.627 81.6975 697.299 82.8464C700.77 84.3378 697.996 84.9936 687.583 85.1417C671.353 85.3725 673.066 90.0287 689.405 90.0967C694.413 90.1161 698.513 91.2261 698.513 92.562C698.513 93.8979 695.37 94.9909 691.53 94.9909C680.78 94.9909 669.367 97.7671 669.367 100.381C669.367 101.772 674.574 102.178 682.118 101.374L694.87 100.014L683.94 103.084C665.949 108.136 673.394 112.681 693.656 109.01L702.157 107.473L692.441 112.098C687.097 114.643 680.877 116.751 678.618 116.788C676.359 116.822 673.836 117.944 673.01 119.28C671.072 122.418 684.081 122.459 692.283 119.341C702.023 115.636 699.584 119.073 689.405 123.394C684.394 125.522 681.562 127.708 683.107 128.255C684.652 128.801 689.883 127.592 694.734 125.566C699.584 123.54 702.895 122.943 702.093 124.242C700.129 127.422 686.842 134.213 677.868 136.625C672.272 138.131 673.576 138.398 683.488 137.776C694.639 137.076 697.736 135.68 706.259 127.516L716.125 118.065L709.985 127.781C703.932 137.358 699.524 148.427 701.763 148.427C702.392 148.427 705.759 143.564 709.242 137.623C718.622 121.614 720.874 122.068 714.151 138.611C706.254 158.045 706.849 159.869 715.763 143.569C719.783 136.221 722.462 132.219 721.717 134.672C719.217 142.908 717.25 159.374 718.952 157.809C719.878 156.957 722.785 150.945 725.411 144.451L730.189 132.639L728.823 148.427C727.677 161.698 727.944 163.44 730.504 159.357C732.18 156.685 734.867 148.487 736.475 141.14L739.396 127.781L739.6 138.247C739.865 151.895 744.662 149.26 744.662 135.464C744.662 123.688 738.454 116.389 730.259 118.532C723.796 120.222 717.944 115.384 717.944 108.35C717.944 105.338 716.305 101.512 714.301 99.8487C709.628 95.9697 709.713 93.8542 714.743 88.8239C721.432 82.1347 719.732 72.3487 709.885 60.843C704.967 55.0987 700.942 49.6191 700.942 48.6694C700.942 45.3807 681.373 39.1263 671.086 39.1263C656.537 39.1263 628.447 47.3894 622.382 53.4544L617.281 58.5575L623.531 58.5575C634.084 58.5575 645.078 63.5027 645.078 68.2512C645.078 74.8723 639.549 75.6812 622.992 71.4792C608.906 67.9039 607.442 67.9354 600.636 71.9553C596.631 74.3234 594.124 75.0084 595.069 73.4806C597.209 70.0194 592.854 69.8834 586.624 73.2158C584.039 74.6003 581.926 75.0837 581.926 74.2918C581.926 73.5024 589.871 69.2324 599.582 64.807C617.755 56.5269 630.854 46.175 618.34 49.9835C602.851 54.6979 577.379 70.7675 543.227 97.3712C522.749 113.322 504.77 126.965 503.276 127.684C501.372 128.604 501.474 129.423 503.621 130.421C509.181 133.008 511.877 140.732 509.059 145.998C505.275 153.071 497.352 152.116 493.942 144.176C492.366 140.504 490.867 137.159 490.614 136.746C490.129 135.957 446.438 159.738 442.265 163.063C440.929 164.127 436.557 165.368 432.549 165.822C425.996 166.561 426.778 167.202 440.346 172.203C459.716 179.344 471.657 194.061 461.302 198.034C458.456 199.127 453.63 195.71 444.907 186.424C430.951 171.567 424.937 167.831 415.1 167.916C408.639 167.972 408.865 168.322 419.19 174.2C429.831 180.257 439.486 190.102 442.508 197.974C443.632 200.908 442.488 201.862 437.844 201.862C431.616 201.862 421.619 192.067 421.619 185.963C421.619 184.258 418.418 180.17 414.505 176.876C401.53 165.958 369.257 165.927 362.597 176.823C357.632 184.95 344.531 177.719 333.926 160.994L326.892 149.903L326.892 158.113C326.892 169.378 318.413 185.946 310.891 189.373C303.888 192.565 275.169 190.838 273.862 187.146C273.415 185.887 271.127 184.86 268.774 184.86C266.42 184.86 262.514 182.674 260.098 180.002C257.681 177.33 253.838 175.144 251.56 175.144C249.282 175.144 245.366 172.412 242.86 169.072C240.351 165.733 237.094 163 235.622 163C234.15 163 231.619 160.09 229.999 156.537C227.47 150.984 227.847 148.533 232.661 139.177C235.746 133.185 241.077 126.185 244.514 123.62C252.454 117.691 268.334 114.002 273.328 116.924C276.527 118.797 276.396 119.144 272.456 119.207C265.946 119.309 247.635 130.446 245.704 135.473C244.205 139.379 244.409 139.374 248.791 135.408C253.095 131.512 278.314 120.579 278.314 122.61C278.314 123.096 273.843 126.452 268.375 130.069C255.036 138.898 258.179 141.009 272.322 132.719C286.726 124.279 288.389 125.942 275.723 136.119C263.923 145.604 264.674 149.238 276.563 140.171C288.334 131.191 289.72 132.355 279.631 142.743C274.882 147.632 271.455 152.094 272.019 152.655C273.627 154.263 283.706 148.448 291.443 141.451C299.135 134.49 298.341 136.656 287.102 153.284C280.015 163.772 279.956 164.057 285.693 160.323C288.982 158.181 294.255 152.716 297.413 148.179C302.263 141.205 302.883 140.868 301.411 145.998C300.454 149.337 298.056 154.625 296.084 157.746C294.112 160.867 293.16 164.081 293.966 164.887C295.934 166.857 301.479 160.996 306.094 152.07C308.688 147.052 309.866 146.156 309.875 149.194C309.883 151.618 308.688 155.849 307.218 158.594C305.331 162.123 305.319 163.109 307.179 161.958C308.629 161.064 310.917 156.833 312.265 152.558C314.702 144.834 314.709 144.846 313.757 154.499C313.23 159.842 311.957 166.4 310.932 169.072C309.096 173.852 309.152 173.855 314.289 169.347C320.971 163.479 323.144 151.778 319.795 139.704C317.179 130.28 310.869 125.663 293.718 120.633C287.219 118.726 284.848 113.079 288.044 107.106C289.665 104.082 289.66 102.071 288.037 101.068C283.915 98.5201 285.339 90.3396 290.459 87.1407C293.131 85.4721 295.317 82.2489 295.317 79.9755C295.317 77.7044 296.453 75.1444 297.843 74.2846C299.339 73.3592 296.825 68.7977 291.681 63.1043C282.708 53.1726 277.219 42.8255 274.773 31.2324C273.425 24.8444 272.728 24.5529 258.791 24.5529C233.987 24.5529 195.676 41.1739 179.64 58.8927C175.123 63.8865 175.13 63.8889 186.458 62.1887C193.25 61.171 201.192 61.6106 206.266 63.2841C214.388 65.9656 218.867 71.0468 215.804 74.1072C213.067 76.8446 201.518 75.5597 196.803 71.9941C190.464 67.1995 169.145 67.2359 162.269 72.0549C159.298 74.134 156.87 74.9161 156.87 73.7915C156.87 72.6694 159.877 69.8761 163.549 67.5881C172.295 62.1425 192.123 43.9841 189.327 43.9841C183.568 43.9841 152.777 64.756 130.023 83.9904C102.183 107.524 76.716 130.569 76.716 132.228C76.716 132.809 78.9822 133.88 81.7535 134.604C85.6203 135.614 86.6064 137.514 86.0041 142.782C85.3847 148.176 83.9784 149.641 79.4097 149.641C74.6248 149.641 71.1465 146.488 67.8869 139.194C67.7072 138.791 62.2422 141.837 55.7424 145.961C42.5851 154.309 17.0186 163 5.61737 163C-5.10382 163 -1.21515 160.564 23.6908 151.669C51.0596 141.898 66.3591 132.721 91.9451 110.728C141.487 68.1395 155.062 58.6255 192.088 40.5254C230.025 21.9832 250.814 15.7433 266.381 18.2329C274.141 19.4741 275.796 18.9495 277.1 14.8398C278.788 9.51808 281.987 8.52706 284.476 12.5542C285.489 14.1912 287.172 13.6156 289.108 10.9681C290.789 8.67037 293.424 7.5968 294.996 8.56593C296.56 9.53263 301.372 9.25332 305.688 7.94415C310.002 6.63497 318.84 4.92257 325.326 4.14046C336.341 2.80942 337.66 3.2588 345.364 10.9632C352.09 17.6889 353.61 21.0675 353.61 29.2893C353.61 37.6082 348.235 53.6997 345.454 53.6997C345.043 53.6997 345.031 47.4137 345.427 39.7335C346.129 26.0758 346.095 25.9957 343.933 36.0756C341.228 48.6986 335.58 59.2157 337.808 47.4793C338.585 43.3914 338.204 37.3799 336.962 34.1203L334.701 28.1963L332.989 34.7761C330.06 46.0146 330.285 57.3916 333.424 56.7844C335.012 56.4783 337.018 58.4506 337.881 61.1685C340.169 68.3823 344.276 65.8199 351.451 52.7038C361.987 33.4378 370.588 26.513 386.83 24.2153C400.14 22.3305 401.297 22.5758 406.439 28.376C409.446 31.7668 411.904 36.6634 411.904 39.2623C411.904 41.8588 412.729 43.9841 413.74 43.9841C415.576 43.9841 418.294 49.9786 423.606 65.7421C425.479 71.297 425.62 74.9598 424.029 76.5507C422.702 77.8769 421.619 83.0359 421.619 88.0175C421.619 102.632 411.471 109.02 392.327 106.453C387.063 105.746 382.757 105.462 382.757 105.821C382.757 106.181 386.983 109.402 392.147 112.982C402.737 120.319 411.007 133.642 408.705 139.644C407.859 141.844 404.41 144.691 401.037 145.973C397.663 147.256 394.901 149.352 394.901 150.632C394.901 151.91 392.715 153.651 390.044 154.499C380.556 157.511 385.395 160.571 399.64 160.571C440.375 160.571 485.232 138.789 551.565 86.7958C566.26 75.278 585.404 62.1012 594.11 57.513C608.455 49.9543 616.917 46.4105 656.008 31.5894C663.77 28.648 673.348 27.1446 682.553 27.4239C695.237 27.8101 697.238 27.2295 699.32 22.5636C700.622 19.6514 703.167 17.2662 704.981 17.2662C706.793 17.2662 710.148 15.0802 712.436 12.4084C714.724 9.73664 719.084 7.55063 722.127 7.55063C725.17 7.55063 727.66 6.45763 727.66 5.12174C727.66 3.78585 729.3 2.69285 731.303 2.69285C733.307 2.69285 734.947 3.5138 734.947 4.51937C734.947 5.5225 741.417 6.05928 749.326 5.71195C762.352 5.1363 764.181 5.68283 768.757 11.5C775.296 19.8117 775.395 35.2813 768.978 45.8057C766.33 50.1462 765.007 53.6996 766.034 53.6996C767.062 53.6996 769.69 50.6927 771.873 47.0202C778.766 35.4246 790.044 26.462 799.755 24.8638C813.534 22.5977 825.467 24.2128 823.958 28.1428C823.196 30.1296 825.008 31.9707 828.622 32.8767C832.319 33.8046 834.531 36.1096 834.531 39.0291C834.531 41.5965 835.406 44.2391 836.477 44.8998C837.546 45.5604 838.695 50.8166 839.027 56.5803C839.36 62.3441 840.672 67.4229 841.94 67.8674C846.081 69.3223 844.383 73.483 836.739 80.624ZM790.811 93.2251C781.176 91.9329 780.438 92.2146 781.623 96.7421C782.636 100.621 781.953 101.413 778.388 100.48C767.477 97.6262 770.97 115.753 783.675 127.927C797.143 140.829 795.086 130.285 780.331 110.779C774.314 102.827 775.701 103.694 787.97 115.561C796.211 123.533 802.956 129.199 802.956 128.153C802.956 124.626 797.552 115.688 791.122 108.581C784.545 101.313 786.726 101.826 799.21 110.487L806.398 115.474L802.38 109.742C800.172 106.586 795.3 101.986 791.552 99.5159C787.804 97.0433 785.426 95.0152 786.264 95.0079C789.573 94.9715 806.874 102.982 811.457 106.669C814.129 108.819 812.934 106.99 808.802 102.605C803.347 96.815 798.419 94.2452 790.811 93.2251ZM788.382 73.5219C795.73 73.2668 803.381 71.8945 805.385 70.4736C808.027 68.5985 804.374 68.3094 792.106 69.417C773.236 71.1221 772.616 71.3796 774.647 76.6697C776.231 80.7964 787.275 81.6077 800.831 78.5958C807.996 77.0025 806.888 76.5993 792.026 75.3824C775.065 73.9931 775.058 73.9882 788.382 73.5219ZM789.451 59.5679C782.852 61.4843 779.092 61.9871 781.096 60.6852C783.1 59.3833 789.111 55.565 794.455 52.201L804.17 46.0851L795.795 47.4987C785.944 49.1625 776.223 54.9991 776.274 59.2205C776.374 67.1703 779.893 68.2123 792.754 64.0978C808.707 58.9971 805.686 54.8534 789.451 59.5679ZM786.417 83.0164C783.265 82.9217 781.467 83.9103 782.31 85.2753C783.136 86.6112 787.846 87.6265 792.776 87.5342C800.002 87.3957 800.799 86.9585 796.884 85.2753C794.212 84.1264 789.502 83.1112 786.417 83.0164ZM786.726 39.9861C782.961 41.956 776.104 47.4987 771.489 52.3006C763.654 60.452 763.365 61.2997 767.149 65.0839C770.933 68.8681 771.307 68.8584 772.806 64.9552C773.688 62.6574 773.794 60.1629 773.044 59.41C771.339 57.7073 792.475 39.1967 796.425 38.9344C798.635 38.7887 798.64 38.4681 796.442 37.5718C794.863 36.9281 790.491 38.0139 786.726 39.9861ZM793.214 194.617C790.52 198.977 786.59 195.649 780.778 184.088C777.97 178.501 773.991 172.018 771.936 169.679C765.493 162.349 772.488 165.048 782.786 173.862C792.988 182.594 796.422 189.429 793.214 194.617ZM780.005 131.526C778.069 129.921 775.252 124.869 773.746 120.3C770.897 111.673 764.086 108.806 764.103 116.244C764.115 122.27 772.629 135.481 778.536 138.641C782.473 140.749 783.525 140.589 783.525 137.88C783.525 135.993 781.941 133.134 780.005 131.526ZM773.345 90.1695C775.094 90.1501 775.849 89.0401 775.024 87.7042C772.485 83.5969 768.951 85.0106 768.951 90.1331C768.951 93.1546 770.559 94.9763 773.202 94.9545C776.835 94.9229 776.923 94.5731 773.809 92.562C771.162 90.852 771.035 90.1962 773.345 90.1695ZM764.727 126.567C759.874 112.263 756.858 109.147 756.615 118.187C756.51 122.129 755.874 123.997 755.206 122.338C754.237 119.943 753.363 119.948 750.948 122.362C748.757 124.553 748.347 130.477 749.476 143.593C750.526 155.796 751.687 160.357 753.003 157.448C754.082 155.062 754.485 147.319 753.897 140.244C753.105 130.674 753.652 127.375 756.034 127.375C757.795 127.375 759.236 128.772 759.236 130.479C759.236 132.187 762.065 136.649 765.522 140.397C770.399 145.684 771.429 146.124 770.122 142.354C769.197 139.683 766.768 132.578 764.727 126.567ZM766.724 74.3744C765.325 70.7918 762.554 69.5385 755.993 69.5166C751.128 69.4996 746.622 70.8525 745.981 72.5236C745.34 74.1922 742.595 75.5597 739.88 75.5597C736.608 75.5597 734.947 77.1555 734.947 80.2961C734.947 82.9023 733.259 85.9797 731.192 87.1359C728.26 88.7778 727.961 90.6092 729.829 95.5204C732.734 103.159 736.132 105.45 744.959 105.717C749.552 105.855 752.07 104.507 752.86 101.491C753.496 99.052 756.285 96.4652 759.056 95.7414C761.832 95.0152 764.093 92.4333 764.093 89.9922C764.093 87.556 765.186 84.8867 766.522 84.0609C769.308 82.3388 769.335 81.0612 766.724 74.3744ZM762.119 97.976C760.343 97.3834 759.802 98.4958 760.708 100.859C761.521 102.975 763.251 104.706 764.555 104.706C767.749 104.706 765.75 99.1856 762.119 97.976ZM760.382 37.9118C756.515 49.6483 756.034 56.1285 759.034 56.1285C762.388 56.1285 763.717 51.2295 763.647 39.1263L763.583 28.1962L760.382 37.9118ZM756.321 59.0432C751.798 54.5206 749.105 55.5893 749.957 61.5693C750.385 64.5617 752.649 67.3743 754.985 67.8188C759.857 68.7467 760.671 63.3934 756.321 59.0432ZM751.949 36.6974C749.139 45.4754 749.139 53.6997 751.949 53.6997C753.285 53.6996 754.269 48.5091 754.135 42.1624C753.938 32.7602 753.535 31.7473 751.949 36.6974ZM744.662 108.35C743.326 107.524 742.233 107.942 742.233 109.278C742.233 110.614 743.326 112.382 744.662 113.208C745.998 114.033 747.091 113.616 747.091 112.28C747.091 110.944 745.998 109.176 744.662 108.35ZM745.503 38.332C743.764 27.8174 740.069 30.5936 739.593 42.7696L739.309 50.0563L736.776 42.1624C733.866 33.0929 731.231 32.0727 729.341 39.2914C727.211 47.4428 732.117 57.9138 738.653 59.1647C746.792 60.7192 748.396 55.8444 745.503 38.332ZM741.748 63.901C737.499 59.6529 734.947 60.3281 734.947 65.7008C734.947 71.0395 738.605 74.1582 742.233 71.9164C745.449 69.9295 745.299 67.4521 741.748 63.901ZM728.267 73.738C726.487 73.143 725.231 74.8189 725.231 77.787C725.231 80.7697 726.8 82.8464 729.052 82.8464C733.516 82.8464 732.863 75.2683 728.267 73.738ZM720.813 46.2551C719.907 55.3829 727.007 68.4018 730.133 63.3448C731.272 61.4988 729.909 55.7156 726.832 49.3349L721.588 38.4681L720.813 46.2551ZM713.087 43.0222C713.087 39.9448 712.237 39.0048 710.777 40.4646C705.198 46.0438 716.259 70.7019 724.34 70.7019C726.433 70.7019 725.034 66.7307 720.32 59.2958C716.341 53.0244 713.087 45.7013 713.087 43.0222ZM720.828 90.6893C719.241 90.1598 717.944 91.4593 717.944 93.5749C717.944 95.688 719.676 97.4198 721.789 97.4198C726.079 97.4198 725.333 92.1904 720.828 90.6893ZM681.858 31.876C674.319 31.8979 666.513 32.9714 664.509 34.2612C661.871 35.9638 663.544 36.4885 670.581 36.1727C675.925 35.9298 684.409 36.6197 689.434 37.7054C697.304 39.4032 698.363 39.1336 697.068 35.7598C695.929 32.7869 692.254 31.8493 681.858 31.876ZM684.511 11.194C680.083 17.2201 645.129 35.2255 648.522 29.7313C649.27 28.5217 648.255 26.1827 646.265 24.531C641.607 20.6642 641.675 16.1586 646.464 11.3664C651.405 6.42849 656.464 6.25361 652.391 11.1624C650.742 13.1492 650.084 16.5789 650.929 18.7794C652.335 22.4471 652.872 22.4179 657.273 18.4345C659.916 16.0421 662.08 14.9272 662.08 15.957C662.08 16.9893 666.496 13.8415 671.893 8.96426C681.195 0.562705 686.415 -0.554574 686.332 5.87228C686.311 7.4632 685.492 9.85808 684.511 11.194ZM654.448 189.888C643.669 191.982 623.541 191.865 618.26 189.677C614.505 188.122 601.787 176.291 590 163.386C573.571 145.403 570.836 141.526 578.283 146.785L587.999 153.646L577.362 143.749C562.332 129.763 567.926 131.563 587.914 147.149C597.216 154.402 605.414 159.728 606.13 158.985C608.02 157.018 584.783 137.047 576.711 133.705C570.379 131.082 569.25 126.567 574.926 126.567C576.262 126.567 576.566 127.844 575.599 129.408C574.351 131.429 575.186 131.667 578.492 130.232C585.922 127.004 592.783 128.043 606.623 134.49C625.578 143.321 639.086 154.117 645.964 165.934C651.56 175.548 656.498 189.49 654.448 189.888ZM632.238 114.718C621.452 127.49 608.673 129.615 584.569 122.639C561.589 115.991 559.938 114.257 578.098 115.853C587.35 116.664 596.641 117.849 598.744 118.488C602.062 119.491 602.086 119.333 598.929 117.305C596.925 116.018 589.767 114.223 583.024 113.319C568.516 111.371 559.046 106.812 572.211 108.112C576.886 108.576 578.526 108.379 575.854 107.677C572.184 106.713 573.668 105.61 581.926 103.169L592.856 99.9361L581.926 100.837C575.915 101.335 568.81 102.423 566.138 103.259C563.467 104.094 565.106 102.953 569.782 100.723C574.457 98.4934 583.748 95.2921 590.427 93.6064L602.572 90.546L592.856 90.3687C586.784 90.2594 575.929 93.3417 563.906 98.5905C542.338 108.005 542.27 106.722 563.661 93.8809C582.402 82.6302 594.18 79.5674 610.745 81.6368C633.778 84.5151 644.201 100.553 632.238 114.718ZM624.702 24.361C621.967 31.9319 601.717 52.4415 599.332 50.0563C598.778 49.5001 601.151 45.6867 604.605 41.5819C610.213 34.917 615.88 20.7565 615.916 13.312C615.924 11.8061 617.653 9.14399 619.759 7.39761C622.933 4.76469 623.966 4.81568 625.795 7.70608C628.559 12.0781 628.43 14.0455 624.702 24.361ZM602.944 136.02C597.804 133.304 593.155 131.531 592.609 132.078C591.455 133.231 614.355 146.015 617.473 145.961C620.135 145.913 614.896 142.33 602.944 136.02ZM594.52 138.473C588.407 134.596 584.894 131.424 586.714 131.424C588.533 131.424 589.451 130.851 588.751 130.152C588.052 129.454 585.63 129.591 583.372 130.458C579.976 131.76 580.654 132.964 587.275 137.412C605.661 149.755 609.601 151.956 607.653 148.796C606.543 146.996 600.634 142.349 594.52 138.473ZM602.769 38.8616C599.536 43.2433 592.157 50.8336 586.374 55.7278C575.655 64.7997 575.665 64.756 588.535 46.6534C590.814 43.4473 593.408 33.7973 594.297 25.2087C596.021 8.54406 598.729 3.59396 604.838 5.93785C611.202 8.37889 609.893 29.2018 602.769 38.8616ZM589.82 194.845C567.567 198.149 548.799 192.635 536.358 179.135C525.369 167.214 522.581 162.526 520.257 152.07C518.746 145.271 519.008 145.422 524.172 154.309C527.215 159.549 531.255 164.348 533.147 164.97C535.425 165.72 534.808 163.602 531.325 158.713C524.053 148.497 524.738 147.669 533.606 155.954C537.754 159.828 542.26 163 543.618 163C546.372 163 543.37 158.587 532.26 146.301C526.254 139.656 525.858 138.624 530.176 140.848C533.108 142.359 536.146 144.63 536.931 145.898C538.923 149.121 552.78 158.803 552.78 156.969C552.78 156.143 548.68 151.57 543.671 146.807C533.778 137.399 536.844 138.143 550.351 148.427C563.044 158.089 566.843 159.794 561.281 153.335C558.609 150.231 551.563 144.577 545.624 140.773C533.21 132.819 536.241 131.512 550.38 138.726C563.644 145.492 576.677 157.399 584.78 170.156C591.154 180.184 594.017 194.223 589.82 194.845ZM588.373 32.0436C585.254 40.6152 572.026 59.1817 570.282 57.4377C569.792 56.9471 570.783 53.9911 572.49 50.8724C574.195 47.7513 576.197 37.001 576.937 26.9818C578.227 9.53019 578.538 8.76509 584.355 8.76509C589.359 8.76509 590.525 10.0475 590.986 16.0518C591.292 20.0595 590.117 27.2563 588.373 32.0436ZM568.514 42.1915C565.305 50.9283 557.637 63.816 557.637 60.4714C557.637 59.5921 558.784 55.8614 560.183 52.1792C561.703 48.1788 562.019 40.0444 560.967 31.9829L559.206 18.4807L556.19 37.5135C552.835 58.6716 550.351 64.1148 550.351 50.3041C550.351 45.32 548.067 35.9347 545.277 29.4471C542.486 22.962 540.587 15.668 541.055 13.2367C542.219 7.1936 550.533 6.04959 554.441 11.3932C557.506 15.5879 557.776 15.5782 561.018 11.143C563.889 7.21547 564.985 7.00657 568.305 9.76094C573.119 13.7589 573.221 29.3718 568.514 42.1915ZM546.547 72.0743C541.293 82.7784 530.018 95.8361 518.143 104.976L507.845 112.904L514.039 105.768C526.547 91.3597 526.987 89.2101 515.362 99.2925C508.812 104.974 502.888 109.061 502.203 108.374C501.515 107.687 498.724 109.04 496.002 111.381C493.279 113.723 494.829 110.759 499.448 104.799C504.066 98.8383 506.555 94.7577 504.976 95.7293C499.497 99.1103 499.191 92.6713 504.347 82.5598C509.781 71.9091 516.708 53.6997 515.326 53.6997C514.884 53.6997 508.843 63.5367 501.904 75.5597C494.967 87.5828 488.863 97.4198 488.346 97.4198C487.826 97.4198 490.495 90.529 494.275 82.1056C505.219 57.7098 505.282 53.1289 494.382 74.3453C483.461 95.6006 477 104.362 483.636 88.9187C489.891 74.3647 501.921 35.9274 501.047 33.3018C500.24 30.8851 499.344 32.9447 487.071 65.4021C478.599 87.8086 475.213 90.4901 480.819 70.3546C482.813 63.1991 485.028 52.4245 485.744 46.413C486.655 38.7911 485.305 41.7301 481.285 56.1286L475.519 76.7742L475.373 58.5575C475.188 35.7088 482.873 11.4174 492.528 4.32506C503.815 -3.96719 526.79 0.334395 531.048 11.534C533.657 18.3981 529.989 40.0007 523.358 56.8257L518.627 68.8293L526.173 62.4777C533.105 56.6459 544.604 51.8634 546.518 54.0154C549.62 57.5033 549.634 65.7907 546.547 72.0743ZM528.381 197.005C525.539 197.005 519.139 190.515 506.859 175.181C502.307 169.5 494.11 162.718 488.642 160.11C478.783 155.407 478.769 155.378 486.786 156.733C499.832 158.936 510.624 165.162 521.107 176.536C530.334 186.543 534.05 197.005 528.381 197.005ZM517.966 87.7042C517.522 87.7042 513.618 92.3483 509.29 98.027L501.421 108.35L510.099 98.8358C518.333 89.8076 519.819 87.7042 517.966 87.7042ZM503.721 194.576C500.279 194.576 493.14 188.962 483.643 178.788C468.485 162.548 468.599 160.243 484.241 166.767C502.647 174.443 516.747 194.576 503.721 194.576ZM503.011 138.672C503.709 137.543 503.169 135.932 501.812 135.092C500.386 134.21 499.344 136.19 499.344 139.782C499.344 145.905 501.693 147.698 505.163 144.227C506.137 143.253 505.766 142.065 504.338 141.589C502.909 141.113 502.314 139.802 503.011 138.672ZM496.857 103.543C492.815 107.201 492.057 107.301 492.057 104.165C492.057 99.5013 498.414 93.9489 500.284 96.9777C501.039 98.1995 499.497 101.155 496.857 103.543ZM483.313 195.222C480.347 198.19 470.19 191.161 464.062 181.902C460.586 176.648 454.259 170.836 450.003 168.985C445.748 167.134 444.086 165.577 446.314 165.524C454.098 165.341 471.778 174.649 478.246 182.339C484.926 190.274 485.868 192.669 483.313 195.222ZM470.887 93.7765C466.325 108.734 463.923 114.014 458.337 121.374C454.057 127.009 453.991 126.729 454.691 105.586L455.403 84.0609L451.961 100.786C446.97 125.061 446.384 125.253 447.426 102.278C448.344 82.0012 447.018 81.7024 442.024 101.063L440.147 108.35L438.332 98.6342C437.154 92.3288 436.771 97.4441 437.237 113.208C437.946 137.227 437.915 137.39 434.274 127.781C432.071 121.969 430.497 109.285 430.356 96.2053C430.101 72.6038 432.144 66.4999 445.104 52.1063C451.611 44.8803 452.379 44.635 458.492 47.8388C462.893 50.1438 466.597 55.5626 470.015 64.7026C475.779 80.109 475.716 77.9449 470.887 93.7765ZM460.294 101.063C457.764 109.078 456.042 116.73 456.469 118.065C457.625 121.694 464.96 99.5791 464.926 92.562C464.909 89.0158 462.981 92.5523 460.294 101.063ZM455.004 22.6851C449.925 28.8618 435.175 36.6974 428.624 36.6974C427.048 36.6974 429.472 34.2175 434.011 31.1838C438.551 28.1525 444.033 22.1532 446.195 17.854C451.509 7.27863 455.738 2.4767 458.327 4.07735C462.235 6.49167 460.547 15.9425 455.004 22.6851ZM433.756 18.1989C423.715 27.2709 415.528 30.6446 423.919 22.2527C426.521 19.6514 430.373 14.1864 432.481 10.1083C434.592 6.03014 437.929 2.69286 439.899 2.69286C446.285 2.69286 443.703 9.21202 433.756 18.1989ZM419.377 15.0244C415.472 18.93 410.48 22.124 408.285 22.124C405.316 22.124 406.587 19.3211 413.249 11.194C418.175 5.18247 423.166 0.263965 424.34 0.263965C428.85 0.263965 426.171 8.23073 419.377 15.0244ZM381.146 82.5137C401.911 79.7787 400.651 75.5865 378.992 75.346L359.682 75.1298L374.863 71.5351C383.211 69.5555 390.044 66.7987 390.044 65.407C390.044 63.0801 382.4 63.68 366.969 67.2165C364.297 67.8286 367.576 65.6766 374.256 62.4316C388.613 55.4582 388.193 55.0623 371.22 59.58C364.207 61.4479 358.468 62.4656 358.468 61.8438C358.468 61.222 364.207 58.1033 371.22 54.9166C380.301 50.7899 382.363 49.0823 378.385 48.9827C375.315 48.905 369.303 50.632 365.026 52.818L357.253 56.7941L362.109 51.3509C364.778 48.3585 370.79 43.7801 375.468 41.1787L383.971 36.4496L375.587 37.8268C366.364 39.3376 357.423 46.5053 352.175 56.5973C349.84 61.0835 349.583 63.6436 351.361 64.7414C355.15 67.0829 358.21 76.5483 355.699 78.1538C351.589 80.7818 360.902 94.5173 368.618 97.2061C378.113 100.517 394.124 100.641 396.116 97.4198C397.046 95.9139 392.251 94.918 383.507 94.799C368.49 94.595 370.892 92.6689 391.258 88.581C400.828 86.6598 400.738 86.6112 385.186 85.3458L369.398 84.0609L381.146 82.5137ZM381.188 16.1684C377.654 19.4425 373.916 22.124 372.886 22.124C371.854 22.124 369.007 22.8867 366.561 23.8194C363.833 24.859 366.194 20.6278 372.662 12.887C382.75 0.815343 387.615 -1.23225 387.615 6.59607C387.615 8.58535 384.722 12.8918 381.188 16.1684ZM375.592 108.413C371.65 106.375 364.271 104.818 359.197 104.954L349.967 105.202L358.468 107.587C363.144 108.899 370.522 111.503 374.863 113.373C384.719 117.618 385.331 113.448 375.592 108.413ZM357.253 116.467C348.269 110.973 353.404 110.546 364.054 115.901C371.482 119.634 371.645 119.617 367.7 115.503C364.897 112.579 359.634 111.121 351.305 110.958C335.116 110.643 335.087 115.187 351.181 128.76C365.963 141.225 367.377 136.962 353.003 123.263L342.68 113.424L356.833 121.077C370.918 128.694 371.251 125.024 357.253 116.467ZM355.981 96.2418C354.676 97.0482 353.61 95.5204 353.61 92.8486C353.61 87.3909 349.989 84.2236 346.333 86.4849C344.808 87.4249 345.281 90.6286 347.608 95.1294C350.831 101.362 352.622 102.265 361.567 102.18L371.827 102.083L365.089 98.4302C361.385 96.4191 357.285 95.4354 355.981 96.2418ZM346.574 130.732C342.036 124.517 337.387 120.011 336.246 120.718C333.173 122.617 337.37 128.993 348.886 139.925C359.954 150.433 359.425 148.329 346.574 130.732ZM346.112 195.921C342.675 198.044 340.324 195.394 335.733 184.229C332.117 175.434 332.148 175.186 336.598 177.569C341.249 180.056 348.752 189.302 348.752 192.543C348.752 193.504 347.565 195.023 346.112 195.921ZM337.441 133.477C334.951 127.689 331.648 124.22 327.951 123.513C321.315 122.246 317.522 128.699 322.622 132.576C324.427 133.946 327.337 138.585 329.088 142.881C330.839 147.178 333.972 152.097 336.052 153.811C339.413 156.583 339.488 156.284 336.739 151.125C335.039 147.931 332.739 141.92 331.631 137.766C329.933 131.402 330.072 130.943 332.503 134.859C334.094 137.416 338.534 142.881 342.372 147.003C347.594 152.612 348.332 152.969 345.306 148.427C343.081 145.087 339.542 138.359 337.441 133.477ZM341.541 99.8487C338.289 99.8487 337.208 101.015 338.157 103.492C338.927 105.496 341.079 107.135 342.94 107.135C344.8 107.135 346.323 105.496 346.323 103.492C346.323 101.488 344.174 99.8487 341.541 99.8487ZM341.269 78.965C339.948 77.3741 334.541 76.2957 329.253 76.5653C321.743 76.9491 319.321 76.065 318.202 72.5309C315.768 64.8653 311.056 69.3758 311.794 78.6614C312.314 85.2243 311.432 87.6581 308.151 88.7001C305.015 89.6959 303.818 92.5766 303.818 99.1103C303.818 107.342 304.515 108.287 311.675 109.754C317.021 110.849 320.414 110.3 322.294 108.037C323.815 106.205 327.111 104.706 329.617 104.706C332.127 104.706 334.179 103.106 334.179 101.148C334.179 99.1929 336.124 96.5478 338.505 95.2751C343.353 92.681 344.929 83.3783 341.269 78.965ZM328.602 114.169C325.483 117.288 327.893 120.448 331.629 118.141C333.074 117.247 333.569 115.403 332.729 114.043C331.704 112.384 330.346 112.426 328.602 114.169ZM325.194 37.5305C323.956 34.3001 322.775 36.3744 320.815 45.2253L318.131 57.343L316.29 45.8058C313.681 29.4423 309.008 30.885 310.395 47.625C311.685 63.1748 311.206 63.1457 305.015 47.2947C300.845 36.6173 300.391 36.1825 300.298 42.7696C300.24 46.7773 302.254 53.4349 304.77 57.564C315.435 75.0521 332.986 57.8361 325.194 37.5305ZM311.568 114.459C310.487 114.439 310.279 115.515 311.104 116.851C311.93 118.187 314.454 119.263 316.713 119.243C320.252 119.209 320.317 118.879 317.177 116.851C315.173 115.556 312.649 114.48 311.568 114.459ZM302.603 81.632C300.701 82.8076 300.561 84.2042 302.181 85.8243C303.517 87.1601 305.892 87.4589 307.461 86.4898C309.363 85.3142 309.504 83.9176 307.884 82.2975C306.548 80.9616 304.172 80.6629 302.603 81.632ZM300.327 56.5925C296.402 51.6618 292.458 44.6107 291.557 40.9261C289.014 30.511 285.601 30.5353 285.601 40.9698C285.601 47.8485 287.707 53.1264 293.407 60.5443C300.803 70.1676 307.461 73.7623 307.461 68.1297C307.461 66.7161 304.25 61.5256 300.327 56.5925ZM297.745 94.9909C296.41 94.9909 295.317 96.1495 295.317 97.5631C295.317 98.9767 296.41 99.4601 297.745 98.6342C299.081 97.8084 300.174 96.6523 300.174 96.062C300.174 95.4718 299.081 94.9909 297.745 94.9909ZM282.985 64.8459C278.875 61.3871 273.158 58.5575 270.277 58.5575C265.922 58.5575 266.568 59.5946 274.107 64.7171C279.094 68.1054 283.172 71.3359 283.172 71.897C283.172 72.4556 278.662 71.3237 273.15 69.3806C258.269 64.1293 256.379 65.1179 267.992 72.0767C280.1 79.3342 281.117 81.1413 271.137 77.6632C267.19 76.286 261.999 75.6277 259.6 76.1961C256.428 76.9491 258.215 78.6882 266.17 82.5841L277.1 87.9374L266.17 86.4946C256.005 85.1539 255.57 85.3166 259.954 88.8069C262.548 90.8715 266.036 92.562 267.705 92.562C269.376 92.562 271.516 93.8153 272.463 95.348C273.707 97.3615 270.906 97.7647 262.361 96.8004C251.385 95.5641 250.967 95.705 256.532 98.7873C259.83 100.611 265.259 102.239 268.599 102.401C274.365 102.681 274.304 102.81 267.384 104.971C263.377 106.222 256.272 106.591 251.596 105.787C245.019 104.658 243.739 104.986 245.935 107.235C249.408 110.791 266.563 110.825 273.17 107.288C279.009 104.165 281.479 103.98 279.738 106.798C279.028 107.947 271.88 110.73 263.855 112.982C246.867 117.747 233.669 115.277 224.609 105.634C219.343 100.028 219.338 99.9046 223.603 85.9554C228.427 70.1749 240.193 50.0102 245.838 47.8436C258.354 43.0417 276.386 48.6063 285.387 60.0512C292.837 69.5215 291.564 72.0646 282.985 64.8459ZM222.282 128.617C215.746 135.634 208.52 137.062 193.439 134.32L180.719 132.007L190.408 142.039C203.252 155.337 215.6 178.955 214.668 188.45C214.043 194.836 212.885 195.892 205.766 196.572C192.46 197.845 185.3 193.089 161.365 167.076C146.032 150.413 142.007 145.019 148.976 150.472C154.652 154.914 159.298 157.887 159.298 157.078C159.298 156.267 154.652 150.491 148.976 144.244C140.394 134.798 139.882 133.746 145.94 138.004C149.947 140.819 156.437 146.503 160.36 150.634C164.283 154.764 168.604 158.142 169.961 158.142C173.889 158.142 154.251 138.757 142.862 131.393C134.728 126.129 133.365 124.356 136.53 123.142C138.748 122.292 141.135 122.168 141.835 122.865C142.534 123.564 141.762 124.138 140.117 124.138C138.476 124.138 144.579 129.187 153.68 135.357C162.781 141.526 172.837 148.905 176.024 151.752L181.817 156.928L179.177 151.839C176.354 146.408 163.173 135.413 150.958 128.306C144.424 124.502 144.254 124.16 149.583 125.52C155.347 126.992 167.819 133.839 181.159 142.852C186.903 146.734 186.862 146.554 180.393 139.498C176.631 135.398 166.522 128.614 157.926 124.422C149.33 120.23 142.296 115.646 142.296 114.233C142.296 112.7 140.093 112.331 136.831 113.317C132.539 114.614 131.978 114.322 134.223 111.962C136.479 109.584 141.244 109.562 156.928 111.855C167.843 113.451 177.326 114.208 177.999 113.536C179.529 112.005 164.705 108.151 147.154 105.518L133.795 103.514L152.012 102.12L170.228 100.723L149.119 100.286C129.093 99.8705 120.745 97.2571 129.151 94.0315C134.478 91.9864 136.814 92.2608 133.268 94.5149C131.643 95.5471 141.113 96.3487 154.312 96.2976C167.51 96.2466 177.943 95.8337 177.491 95.3771C177.039 94.9229 170.848 93.0381 163.734 91.1897L150.797 87.8305L168.594 89.0158C188.018 90.3104 196.417 93.6623 212.129 106.387C226.343 117.9 228.291 122.165 222.282 128.617ZM211.855 23.149C201.362 34.2758 188.367 39.8987 180.267 36.8213C173.153 34.1155 169.862 25.7431 173.969 20.793C181.615 11.5778 193.866 21.6285 186.978 31.4631C184.962 34.3414 184.195 36.661 185.271 36.6172C189.436 36.4448 198.241 27.0863 204.901 15.7506C212.822 2.27269 220.021 -1.22252 220.021 8.4129C220.021 11.9761 216.64 18.0751 211.855 23.149ZM181.897 23.1587C179.633 23.4915 177.362 25.3059 176.854 27.1932C176.133 29.8771 176.493 29.8309 178.509 26.9818C180.401 24.3052 181.093 24.1813 181.122 26.5179C181.141 28.2667 182.252 29.0221 183.587 28.1963C187.488 25.7868 186.385 22.5005 181.897 23.1587ZM155.473 198.625C148.555 201.279 132.301 194.418 121.143 184.134C110.038 173.896 96.1666 152.667 96.2249 145.998C96.2443 143.994 97.9542 145.791 100.026 149.993C102.098 154.195 106.577 160.207 109.977 163.352L116.161 169.072L110.113 156.928C100.883 138.4 99.6957 130.994 108.299 145.616C116.394 159.374 121.153 161.555 114.342 148.385C111.92 143.7 111.49 141.329 113.264 142.425C115.165 143.6 115.775 143.049 114.983 140.87C114.308 139.015 112.445 137.798 110.844 138.165C109.144 138.553 108.675 137.625 109.72 135.937C110.905 134.018 115.989 137.885 124.808 147.414C137.919 161.582 138.901 161.538 129.36 147.212C125.126 140.856 125.814 141.167 134.745 149.641C155.254 169.104 166.031 194.573 155.473 198.625ZM142.296 92.1782C138.956 92.1782 137.589 91.6269 139.26 90.9541C140.929 90.2788 143.661 90.2788 145.332 90.9541C147.001 91.6269 145.636 92.1782 142.296 92.1782ZM140.951 59.2716C137.54 64.2921 133.712 67.7581 132.445 66.976C131.179 66.1915 129.161 68.0763 127.963 71.1635C126.763 74.2481 122.666 79.5383 118.86 82.9169C102.426 97.4927 100.796 97.6214 113.798 83.3152C121.876 74.4279 127.718 65.7591 127.713 62.6696C127.706 57.8676 127.247 58.0596 123.062 64.6297C117.563 73.2596 104.719 88.105 107.301 82.8464C108.284 80.8426 111.095 76.303 113.548 72.7568C116.001 69.2106 118.007 64.9649 118.007 63.3205C118.007 59.7331 111.233 68.2633 103.465 81.632C100.359 86.9756 91.7047 96.8126 84.231 103.492C70.6826 115.603 71.0226 114.378 86.1887 96.4555C93.8664 87.3812 103.451 68.5524 103.419 62.6065C103.41 61.0471 99.7662 66.8765 95.3189 75.5597C90.874 84.2431 86.0843 91.3476 84.6779 91.3476C83.2716 91.3476 79.8152 94.0801 76.9977 97.4198C72.3925 102.878 72.5043 102.078 78.1247 89.5065C84.0901 76.1646 88.7487 53.5855 88.7754 37.9119C88.7924 26.3114 84.4836 35.5874 82.5769 51.2489C80.8694 65.2758 72.2419 96.1835 70.515 94.4566C69.9636 93.9052 70.5879 89.7081 71.8995 85.1296C73.2135 80.5511 74.1583 66.9615 74.0029 54.9311L73.7187 33.0541L70.5612 60.5832C68.8221 75.7249 66.9397 88.5762 66.3738 89.1397C65.8078 89.7056 65.1472 76.5021 64.9042 59.8011C64.4355 27.7081 67.185 16.914 78.2802 7.27619C84.1703 2.1585 97.7891 -0.328687 103.422 2.68556C111.194 6.84627 116.399 25.0363 114.959 42.998L113.674 59.002L121.306 51.8294C127.555 45.9563 142.855 36.6974 146.314 36.6974C149.612 36.6974 146.025 51.8052 140.951 59.2716ZM116.135 144.633C115.318 145.446 116.628 147.999 119.042 150.307C123.239 154.314 123.305 154.249 120.524 148.825C118.923 145.706 116.948 143.819 116.135 144.633ZM105.071 199.433C100.602 199.433 92.7224 190.296 87.5149 179.067C84.7581 173.124 79.0769 167.056 72.1642 162.672C59.9809 154.946 60.3598 153.887 73.3641 159.323C91.2456 166.794 108.292 184.532 108.292 195.669C108.292 197.74 106.842 199.433 105.071 199.433ZM94.9496 57.6612C93.1693 65.8539 89.9778 75.9095 87.8574 80.0095C83.993 87.4832 82.7858 92.1588 85.3968 89.5478C89.3438 85.6008 98.4424 58.6619 98.3259 51.2708C98.2165 44.4845 97.5364 45.7742 94.9496 57.6612ZM82.9607 197.005C78.0009 197.005 72.2906 190.619 68.0837 180.367C66.0823 175.492 60.9209 168.487 56.6144 164.805L48.7837 158.108L60.1849 164.329C66.4563 167.751 74.9259 174.355 79.0088 179.004C86.8226 187.903 88.8217 197.005 82.9607 197.005ZM82.5283 140.125C80.4443 134.691 74.2871 135.342 74.2871 140.997C74.2871 146.335 77.945 149.454 81.5738 147.212C84.4228 145.451 84.4617 145.162 82.5283 140.125ZM64.9674 197.974C60.9549 200.454 52.5144 191.787 49.658 182.254C48.0574 176.91 44.2513 169.845 41.2006 166.553C32.9788 157.683 37.929 159.306 49.6241 169.315C63.0146 180.777 70.4178 194.605 64.9674 197.974ZM57.1901 94.9909L55.5845 105.921L55.2202 91.9548C54.7101 72.3925 50.0734 74.4157 49.6557 94.3837L49.3132 110.779L47.7733 98.0877C45.7015 81.0369 39.3838 74.1243 41.0646 90.7452C41.7059 97.0943 41.2444 102.897 40.0421 103.64C38.8373 104.383 37.8536 100.621 37.8536 95.2775C37.8536 89.9339 36.5882 84.7798 35.041 83.8228C32.9595 82.538 32.5975 86.7643 33.654 100.075C34.6718 112.904 34.4362 115.974 32.8307 110.779C31.592 106.771 29.8869 94.6995 29.0392 83.9516C27.8053 68.3022 28.2984 62.8615 31.524 56.6265C33.7391 52.3444 36.6149 48.8419 37.9168 48.8419C39.2187 48.8419 40.2825 46.617 40.2825 43.8991C40.2825 39.6412 40.9845 39.3303 45.3468 41.6645C54.9943 46.8283 60.5711 71.9431 57.1901 94.9909ZM43.8118 197.005C41.7472 197.005 38.1937 193.565 35.9178 189.358C33.6444 185.154 28.5024 177.841 24.4947 173.109L17.2081 164.503L27.5867 170.301C33.2946 173.493 40.1271 178.115 42.7673 180.575C48.5602 185.972 49.2646 197.005 43.8118 197.005ZM45.9614 67.6658C45.2861 69.3345 45.2861 72.067 45.9614 73.7381C46.6341 75.4067 47.1855 74.0417 47.1855 70.702C47.1855 67.3622 46.6341 65.9948 45.9614 67.6658ZM37.8536 126.567C36.559 124.563 35.5001 121.83 35.5001 120.494C35.5001 119.158 36.559 119.705 37.8536 121.709C39.1483 123.713 40.2072 126.445 40.2072 127.781C40.2072 129.117 39.1483 128.57 37.8536 126.567ZM24.7595 196.026C19.6199 197.996 17.9294 196.521 9.15869 182.412L1.43237 169.983L10.7521 175.222C22.2335 181.673 30.431 193.849 24.7595 196.026Z"/>
</mask>
<path fill-rule="evenodd" clip-rule="evenodd" d="M836.739 80.624C832.613 84.4811 824.828 88.8215 819.443 90.2716C809.893 92.8438 809.781 92.9967 814.838 96.5381C826.929 105.008 835.066 136.795 826.03 140.261C824.026 141.031 822.387 143.183 822.387 145.043C822.387 146.904 820.747 148.427 818.744 148.427C816.74 148.427 815.093 149.792 815.083 151.463C815.059 156.146 799.825 165.429 792.162 165.429C783.981 165.429 771.03 157.86 763.814 148.861L758.594 142.354L760.195 151.225C763.282 168.344 754.23 190.488 746.18 185.511C743.788 184.032 733.361 183.607 731.911 184.928C730.944 185.807 722.674 186.82 707.597 187.903L693.607 188.909L690.789 179.502C688.475 171.771 688.693 167.802 692.028 157.226C694.258 150.146 696.084 143.739 696.084 142.986C696.084 142.233 690.991 143.149 684.768 145.021C670.372 149.354 661.643 149.325 651.072 144.907C641.704 140.994 640.783 138.495 646.571 132.707C650.183 129.095 650.144 128.393 646.061 123.883C642.277 119.702 642.143 118.663 645.153 116.805C647.786 115.177 647.98 113.924 645.923 111.867C644.113 110.057 643.858 106.477 645.187 101.442C646.297 97.2255 647.742 90.1258 648.393 85.6615C649.046 81.1996 651.3 75.6496 653.401 73.3276C655.502 71.0055 657.222 67.3063 657.222 65.1082C657.222 55.4266 689.505 49.4661 699.871 57.2313C704.207 60.4811 703.854 60.6512 695.477 59.342C689.483 58.4069 686.369 58.8611 686.369 60.6682C686.369 62.1789 689.373 63.5415 693.048 63.697C697.84 63.8986 698.355 64.2702 694.87 65.0062C677.766 68.6228 677.44 68.9385 688.623 71.0201C703.85 73.8595 705.407 76.9321 691.11 75.9313C683.493 75.3994 679.082 76.0674 679.082 77.753C679.082 79.2201 682.087 80.4953 685.762 80.5876C689.437 80.6823 694.627 81.6975 697.299 82.8464C700.77 84.3378 697.996 84.9936 687.583 85.1417C671.353 85.3725 673.066 90.0287 689.405 90.0967C694.413 90.1161 698.513 91.2261 698.513 92.562C698.513 93.8979 695.37 94.9909 691.53 94.9909C680.78 94.9909 669.367 97.7671 669.367 100.381C669.367 101.772 674.574 102.178 682.118 101.374L694.87 100.014L683.94 103.084C665.949 108.136 673.394 112.681 693.656 109.01L702.157 107.473L692.441 112.098C687.097 114.643 680.877 116.751 678.618 116.788C676.359 116.822 673.836 117.944 673.01 119.28C671.072 122.418 684.081 122.459 692.283 119.341C702.023 115.636 699.584 119.073 689.405 123.394C684.394 125.522 681.562 127.708 683.107 128.255C684.652 128.801 689.883 127.592 694.734 125.566C699.584 123.54 702.895 122.943 702.093 124.242C700.129 127.422 686.842 134.213 677.868 136.625C672.272 138.131 673.576 138.398 683.488 137.776C694.639 137.076 697.736 135.68 706.259 127.516L716.125 118.065L709.985 127.781C703.932 137.358 699.524 148.427 701.763 148.427C702.392 148.427 705.759 143.564 709.242 137.623C718.622 121.614 720.874 122.068 714.151 138.611C706.254 158.045 706.849 159.869 715.763 143.569C719.783 136.221 722.462 132.219 721.717 134.672C719.217 142.908 717.25 159.374 718.952 157.809C719.878 156.957 722.785 150.945 725.411 144.451L730.189 132.639L728.823 148.427C727.677 161.698 727.944 163.44 730.504 159.357C732.18 156.685 734.867 148.487 736.475 141.14L739.396 127.781L739.6 138.247C739.865 151.895 744.662 149.26 744.662 135.464C744.662 123.688 738.454 116.389 730.259 118.532C723.796 120.222 717.944 115.384 717.944 108.35C717.944 105.338 716.305 101.512 714.301 99.8487C709.628 95.9697 709.713 93.8542 714.743 88.8239C721.432 82.1347 719.732 72.3487 709.885 60.843C704.967 55.0987 700.942 49.6191 700.942 48.6694C700.942 45.3807 681.373 39.1263 671.086 39.1263C656.537 39.1263 628.447 47.3894 622.382 53.4544L617.281 58.5575L623.531 58.5575C634.084 58.5575 645.078 63.5027 645.078 68.2512C645.078 74.8723 639.549 75.6812 622.992 71.4792C608.906 67.9039 607.442 67.9354 600.636 71.9553C596.631 74.3234 594.124 75.0084 595.069 73.4806C597.209 70.0194 592.854 69.8834 586.624 73.2158C584.039 74.6003 581.926 75.0837 581.926 74.2918C581.926 73.5024 589.871 69.2324 599.582 64.807C617.755 56.5269 630.854 46.175 618.34 49.9835C602.851 54.6979 577.379 70.7675 543.227 97.3712C522.749 113.322 504.77 126.965 503.276 127.684C501.372 128.604 501.474 129.423 503.621 130.421C509.181 133.008 511.877 140.732 509.059 145.998C505.275 153.071 497.352 152.116 493.942 144.176C492.366 140.504 490.867 137.159 490.614 136.746C490.129 135.957 446.438 159.738 442.265 163.063C440.929 164.127 436.557 165.368 432.549 165.822C425.996 166.561 426.778 167.202 440.346 172.203C459.716 179.344 471.657 194.061 461.302 198.034C458.456 199.127 453.63 195.71 444.907 186.424C430.951 171.567 424.937 167.831 415.1 167.916C408.639 167.972 408.865 168.322 419.19 174.2C429.831 180.257 439.486 190.102 442.508 197.974C443.632 200.908 442.488 201.862 437.844 201.862C431.616 201.862 421.619 192.067 421.619 185.963C421.619 184.258 418.418 180.17 414.505 176.876C401.53 165.958 369.257 165.927 362.597 176.823C357.632 184.95 344.531 177.719 333.926 160.994L326.892 149.903L326.892 158.113C326.892 169.378 318.413 185.946 310.891 189.373C303.888 192.565 275.169 190.838 273.862 187.146C273.415 185.887 271.127 184.86 268.774 184.86C266.42 184.86 262.514 182.674 260.098 180.002C257.681 177.33 253.838 175.144 251.56 175.144C249.282 175.144 245.366 172.412 242.86 169.072C240.351 165.733 237.094 163 235.622 163C234.15 163 231.619 160.09 229.999 156.537C227.47 150.984 227.847 148.533 232.661 139.177C235.746 133.185 241.077 126.185 244.514 123.62C252.454 117.691 268.334 114.002 273.328 116.924C276.527 118.797 276.396 119.144 272.456 119.207C265.946 119.309 247.635 130.446 245.704 135.473C244.205 139.379 244.409 139.374 248.791 135.408C253.095 131.512 278.314 120.579 278.314 122.61C278.314 123.096 273.843 126.452 268.375 130.069C255.036 138.898 258.179 141.009 272.322 132.719C286.726 124.279 288.389 125.942 275.723 136.119C263.923 145.604 264.674 149.238 276.563 140.171C288.334 131.191 289.72 132.355 279.631 142.743C274.882 147.632 271.455 152.094 272.019 152.655C273.627 154.263 283.706 148.448 291.443 141.451C299.135 134.49 298.341 136.656 287.102 153.284C280.015 163.772 279.956 164.057 285.693 160.323C288.982 158.181 294.255 152.716 297.413 148.179C302.263 141.205 302.883 140.868 301.411 145.998C300.454 149.337 298.056 154.625 296.084 157.746C294.112 160.867 293.16 164.081 293.966 164.887C295.934 166.857 301.479 160.996 306.094 152.07C308.688 147.052 309.866 146.156 309.875 149.194C309.883 151.618 308.688 155.849 307.218 158.594C305.331 162.123 305.319 163.109 307.179 161.958C308.629 161.064 310.917 156.833 312.265 152.558C314.702 144.834 314.709 144.846 313.757 154.499C313.23 159.842 311.957 166.4 310.932 169.072C309.096 173.852 309.152 173.855 314.289 169.347C320.971 163.479 323.144 151.778 319.795 139.704C317.179 130.28 310.869 125.663 293.718 120.633C287.219 118.726 284.848 113.079 288.044 107.106C289.665 104.082 289.66 102.071 288.037 101.068C283.915 98.5201 285.339 90.3396 290.459 87.1407C293.131 85.4721 295.317 82.2489 295.317 79.9755C295.317 77.7044 296.453 75.1444 297.843 74.2846C299.339 73.3592 296.825 68.7977 291.681 63.1043C282.708 53.1726 277.219 42.8255 274.773 31.2324C273.425 24.8444 272.728 24.5529 258.791 24.5529C233.987 24.5529 195.676 41.1739 179.64 58.8927C175.123 63.8865 175.13 63.8889 186.458 62.1887C193.25 61.171 201.192 61.6106 206.266 63.2841C214.388 65.9656 218.867 71.0468 215.804 74.1072C213.067 76.8446 201.518 75.5597 196.803 71.9941C190.464 67.1995 169.145 67.2359 162.269 72.0549C159.298 74.134 156.87 74.9161 156.87 73.7915C156.87 72.6694 159.877 69.8761 163.549 67.5881C172.295 62.1425 192.123 43.9841 189.327 43.9841C183.568 43.9841 152.777 64.756 130.023 83.9904C102.183 107.524 76.716 130.569 76.716 132.228C76.716 132.809 78.9822 133.88 81.7535 134.604C85.6203 135.614 86.6064 137.514 86.0041 142.782C85.3847 148.176 83.9784 149.641 79.4097 149.641C74.6248 149.641 71.1465 146.488 67.8869 139.194C67.7072 138.791 62.2422 141.837 55.7424 145.961C42.5851 154.309 17.0186 163 5.61737 163C-5.10382 163 -1.21515 160.564 23.6908 151.669C51.0596 141.898 66.3591 132.721 91.9451 110.728C141.487 68.1395 155.062 58.6255 192.088 40.5254C230.025 21.9832 250.814 15.7433 266.381 18.2329C274.141 19.4741 275.796 18.9495 277.1 14.8398C278.788 9.51808 281.987 8.52706 284.476 12.5542C285.489 14.1912 287.172 13.6156 289.108 10.9681C290.789 8.67037 293.424 7.5968 294.996 8.56593C296.56 9.53263 301.372 9.25332 305.688 7.94415C310.002 6.63497 318.84 4.92257 325.326 4.14046C336.341 2.80942 337.66 3.2588 345.364 10.9632C352.09 17.6889 353.61 21.0675 353.61 29.2893C353.61 37.6082 348.235 53.6997 345.454 53.6997C345.043 53.6997 345.031 47.4137 345.427 39.7335C346.129 26.0758 346.095 25.9957 343.933 36.0756C341.228 48.6986 335.58 59.2157 337.808 47.4793C338.585 43.3914 338.204 37.3799 336.962 34.1203L334.701 28.1963L332.989 34.7761C330.06 46.0146 330.285 57.3916 333.424 56.7844C335.012 56.4783 337.018 58.4506 337.881 61.1685C340.169 68.3823 344.276 65.8199 351.451 52.7038C361.987 33.4378 370.588 26.513 386.83 24.2153C400.14 22.3305 401.297 22.5758 406.439 28.376C409.446 31.7668 411.904 36.6634 411.904 39.2623C411.904 41.8588 412.729 43.9841 413.74 43.9841C415.576 43.9841 418.294 49.9786 423.606 65.7421C425.479 71.297 425.62 74.9598 424.029 76.5507C422.702 77.8769 421.619 83.0359 421.619 88.0175C421.619 102.632 411.471 109.02 392.327 106.453C387.063 105.746 382.757 105.462 382.757 105.821C382.757 106.181 386.983 109.402 392.147 112.982C402.737 120.319 411.007 133.642 408.705 139.644C407.859 141.844 404.41 144.691 401.037 145.973C397.663 147.256 394.901 149.352 394.901 150.632C394.901 151.91 392.715 153.651 390.044 154.499C380.556 157.511 385.395 160.571 399.64 160.571C440.375 160.571 485.232 138.789 551.565 86.7958C566.26 75.278 585.404 62.1012 594.11 57.513C608.455 49.9543 616.917 46.4105 656.008 31.5894C663.77 28.648 673.348 27.1446 682.553 27.4239C695.237 27.8101 697.238 27.2295 699.32 22.5636C700.622 19.6514 703.167 17.2662 704.981 17.2662C706.793 17.2662 710.148 15.0802 712.436 12.4084C714.724 9.73664 719.084 7.55063 722.127 7.55063C725.17 7.55063 727.66 6.45763 727.66 5.12174C727.66 3.78585 729.3 2.69285 731.303 2.69285C733.307 2.69285 734.947 3.5138 734.947 4.51937C734.947 5.5225 741.417 6.05928 749.326 5.71195C762.352 5.1363 764.181 5.68283 768.757 11.5C775.296 19.8117 775.395 35.2813 768.978 45.8057C766.33 50.1462 765.007 53.6996 766.034 53.6996C767.062 53.6996 769.69 50.6927 771.873 47.0202C778.766 35.4246 790.044 26.462 799.755 24.8638C813.534 22.5977 825.467 24.2128 823.958 28.1428C823.196 30.1296 825.008 31.9707 828.622 32.8767C832.319 33.8046 834.531 36.1096 834.531 39.0291C834.531 41.5965 835.406 44.2391 836.477 44.8998C837.546 45.5604 838.695 50.8166 839.027 56.5803C839.36 62.3441 840.672 67.4229 841.94 67.8674C846.081 69.3223 844.383 73.483 836.739 80.624ZM790.811 93.2251C781.176 91.9329 780.438 92.2146 781.623 96.7421C782.636 100.621 781.953 101.413 778.388 100.48C767.477 97.6262 770.97 115.753 783.675 127.927C797.143 140.829 795.086 130.285 780.331 110.779C774.314 102.827 775.701 103.694 787.97 115.561C796.211 123.533 802.956 129.199 802.956 128.153C802.956 124.626 797.552 115.688 791.122 108.581C784.545 101.313 786.726 101.826 799.21 110.487L806.398 115.474L802.38 109.742C800.172 106.586 795.3 101.986 791.552 99.5159C787.804 97.0433 785.426 95.0152 786.264 95.0079C789.573 94.9715 806.874 102.982 811.457 106.669C814.129 108.819 812.934 106.99 808.802 102.605C803.347 96.815 798.419 94.2452 790.811 93.2251ZM788.382 73.5219C795.73 73.2668 803.381 71.8945 805.385 70.4736C808.027 68.5985 804.374 68.3094 792.106 69.417C773.236 71.1221 772.616 71.3796 774.647 76.6697C776.231 80.7964 787.275 81.6077 800.831 78.5958C807.996 77.0025 806.888 76.5993 792.026 75.3824C775.065 73.9931 775.058 73.9882 788.382 73.5219ZM789.451 59.5679C782.852 61.4843 779.092 61.9871 781.096 60.6852C783.1 59.3833 789.111 55.565 794.455 52.201L804.17 46.0851L795.795 47.4987C785.944 49.1625 776.223 54.9991 776.274 59.2205C776.374 67.1703 779.893 68.2123 792.754 64.0978C808.707 58.9971 805.686 54.8534 789.451 59.5679ZM786.417 83.0164C783.265 82.9217 781.467 83.9103 782.31 85.2753C783.136 86.6112 787.846 87.6265 792.776 87.5342C800.002 87.3957 800.799 86.9585 796.884 85.2753C794.212 84.1264 789.502 83.1112 786.417 83.0164ZM786.726 39.9861C782.961 41.956 776.104 47.4987 771.489 52.3006C763.654 60.452 763.365 61.2997 767.149 65.0839C770.933 68.8681 771.307 68.8584 772.806 64.9552C773.688 62.6574 773.794 60.1629 773.044 59.41C771.339 57.7073 792.475 39.1967 796.425 38.9344C798.635 38.7887 798.64 38.4681 796.442 37.5718C794.863 36.9281 790.491 38.0139 786.726 39.9861ZM793.214 194.617C790.52 198.977 786.59 195.649 780.778 184.088C777.97 178.501 773.991 172.018 771.936 169.679C765.493 162.349 772.488 165.048 782.786 173.862C792.988 182.594 796.422 189.429 793.214 194.617ZM780.005 131.526C778.069 129.921 775.252 124.869 773.746 120.3C770.897 111.673 764.086 108.806 764.103 116.244C764.115 122.27 772.629 135.481 778.536 138.641C782.473 140.749 783.525 140.589 783.525 137.88C783.525 135.993 781.941 133.134 780.005 131.526ZM773.345 90.1695C775.094 90.1501 775.849 89.0401 775.024 87.7042C772.485 83.5969 768.951 85.0106 768.951 90.1331C768.951 93.1546 770.559 94.9763 773.202 94.9545C776.835 94.9229 776.923 94.5731 773.809 92.562C771.162 90.852 771.035 90.1962 773.345 90.1695ZM764.727 126.567C759.874 112.263 756.858 109.147 756.615 118.187C756.51 122.129 755.874 123.997 755.206 122.338C754.237 119.943 753.363 119.948 750.948 122.362C748.757 124.553 748.347 130.477 749.476 143.593C750.526 155.796 751.687 160.357 753.003 157.448C754.082 155.062 754.485 147.319 753.897 140.244C753.105 130.674 753.652 127.375 756.034 127.375C757.795 127.375 759.236 128.772 759.236 130.479C759.236 132.187 762.065 136.649 765.522 140.397C770.399 145.684 771.429 146.124 770.122 142.354C769.197 139.683 766.768 132.578 764.727 126.567ZM766.724 74.3744C765.325 70.7918 762.554 69.5385 755.993 69.5166C751.128 69.4996 746.622 70.8525 745.981 72.5236C745.34 74.1922 742.595 75.5597 739.88 75.5597C736.608 75.5597 734.947 77.1555 734.947 80.2961C734.947 82.9023 733.259 85.9797 731.192 87.1359C728.26 88.7778 727.961 90.6092 729.829 95.5204C732.734 103.159 736.132 105.45 744.959 105.717C749.552 105.855 752.07 104.507 752.86 101.491C753.496 99.052 756.285 96.4652 759.056 95.7414C761.832 95.0152 764.093 92.4333 764.093 89.9922C764.093 87.556 765.186 84.8867 766.522 84.0609C769.308 82.3388 769.335 81.0612 766.724 74.3744ZM762.119 97.976C760.343 97.3834 759.802 98.4958 760.708 100.859C761.521 102.975 763.251 104.706 764.555 104.706C767.749 104.706 765.75 99.1856 762.119 97.976ZM760.382 37.9118C756.515 49.6483 756.034 56.1285 759.034 56.1285C762.388 56.1285 763.717 51.2295 763.647 39.1263L763.583 28.1962L760.382 37.9118ZM756.321 59.0432C751.798 54.5206 749.105 55.5893 749.957 61.5693C750.385 64.5617 752.649 67.3743 754.985 67.8188C759.857 68.7467 760.671 63.3934 756.321 59.0432ZM751.949 36.6974C749.139 45.4754 749.139 53.6997 751.949 53.6997C753.285 53.6996 754.269 48.5091 754.135 42.1624C753.938 32.7602 753.535 31.7473 751.949 36.6974ZM744.662 108.35C743.326 107.524 742.233 107.942 742.233 109.278C742.233 110.614 743.326 112.382 744.662 113.208C745.998 114.033 747.091 113.616 747.091 112.28C747.091 110.944 745.998 109.176 744.662 108.35ZM745.503 38.332C743.764 27.8174 740.069 30.5936 739.593 42.7696L739.309 50.0563L736.776 42.1624C733.866 33.0929 731.231 32.0727 729.341 39.2914C727.211 47.4428 732.117 57.9138 738.653 59.1647C746.792 60.7192 748.396 55.8444 745.503 38.332ZM741.748 63.901C737.499 59.6529 734.947 60.3281 734.947 65.7008C734.947 71.0395 738.605 74.1582 742.233 71.9164C745.449 69.9295 745.299 67.4521 741.748 63.901ZM728.267 73.738C726.487 73.143 725.231 74.8189 725.231 77.787C725.231 80.7697 726.8 82.8464 729.052 82.8464C733.516 82.8464 732.863 75.2683 728.267 73.738ZM720.813 46.2551C719.907 55.3829 727.007 68.4018 730.133 63.3448C731.272 61.4988 729.909 55.7156 726.832 49.3349L721.588 38.4681L720.813 46.2551ZM713.087 43.0222C713.087 39.9448 712.237 39.0048 710.777 40.4646C705.198 46.0438 716.259 70.7019 724.34 70.7019C726.433 70.7019 725.034 66.7307 720.32 59.2958C716.341 53.0244 713.087 45.7013 713.087 43.0222ZM720.828 90.6893C719.241 90.1598 717.944 91.4593 717.944 93.5749C717.944 95.688 719.676 97.4198 721.789 97.4198C726.079 97.4198 725.333 92.1904 720.828 90.6893ZM681.858 31.876C674.319 31.8979 666.513 32.9714 664.509 34.2612C661.871 35.9638 663.544 36.4885 670.581 36.1727C675.925 35.9298 684.409 36.6197 689.434 37.7054C697.304 39.4032 698.363 39.1336 697.068 35.7598C695.929 32.7869 692.254 31.8493 681.858 31.876ZM684.511 11.194C680.083 17.2201 645.129 35.2255 648.522 29.7313C649.27 28.5217 648.255 26.1827 646.265 24.531C641.607 20.6642 641.675 16.1586 646.464 11.3664C651.405 6.42849 656.464 6.25361 652.391 11.1624C650.742 13.1492 650.084 16.5789 650.929 18.7794C652.335 22.4471 652.872 22.4179 657.273 18.4345C659.916 16.0421 662.08 14.9272 662.08 15.957C662.08 16.9893 666.496 13.8415 671.893 8.96426C681.195 0.562705 686.415 -0.554574 686.332 5.87228C686.311 7.4632 685.492 9.85808 684.511 11.194ZM654.448 189.888C643.669 191.982 623.541 191.865 618.26 189.677C614.505 188.122 601.787 176.291 590 163.386C573.571 145.403 570.836 141.526 578.283 146.785L587.999 153.646L577.362 143.749C562.332 129.763 567.926 131.563 587.914 147.149C597.216 154.402 605.414 159.728 606.13 158.985C608.02 157.018 584.783 137.047 576.711 133.705C570.379 131.082 569.25 126.567 574.926 126.567C576.262 126.567 576.566 127.844 575.599 129.408C574.351 131.429 575.186 131.667 578.492 130.232C585.922 127.004 592.783 128.043 606.623 134.49C625.578 143.321 639.086 154.117 645.964 165.934C651.56 175.548 656.498 189.49 654.448 189.888ZM632.238 114.718C621.452 127.49 608.673 129.615 584.569 122.639C561.589 115.991 559.938 114.257 578.098 115.853C587.35 116.664 596.641 117.849 598.744 118.488C602.062 119.491 602.086 119.333 598.929 117.305C596.925 116.018 589.767 114.223 583.024 113.319C568.516 111.371 559.046 106.812 572.211 108.112C576.886 108.576 578.526 108.379 575.854 107.677C572.184 106.713 573.668 105.61 581.926 103.169L592.856 99.9361L581.926 100.837C575.915 101.335 568.81 102.423 566.138 103.259C563.467 104.094 565.106 102.953 569.782 100.723C574.457 98.4934 583.748 95.2921 590.427 93.6064L602.572 90.546L592.856 90.3687C586.784 90.2594 575.929 93.3417 563.906 98.5905C542.338 108.005 542.27 106.722 563.661 93.8809C582.402 82.6302 594.18 79.5674 610.745 81.6368C633.778 84.5151 644.201 100.553 632.238 114.718ZM624.702 24.361C621.967 31.9319 601.717 52.4415 599.332 50.0563C598.778 49.5001 601.151 45.6867 604.605 41.5819C610.213 34.917 615.88 20.7565 615.916 13.312C615.924 11.8061 617.653 9.14399 619.759 7.39761C622.933 4.76469 623.966 4.81568 625.795 7.70608C628.559 12.0781 628.43 14.0455 624.702 24.361ZM602.944 136.02C597.804 133.304 593.155 131.531 592.609 132.078C591.455 133.231 614.355 146.015 617.473 145.961C620.135 145.913 614.896 142.33 602.944 136.02ZM594.52 138.473C588.407 134.596 584.894 131.424 586.714 131.424C588.533 131.424 589.451 130.851 588.751 130.152C588.052 129.454 585.63 129.591 583.372 130.458C579.976 131.76 580.654 132.964 587.275 137.412C605.661 149.755 609.601 151.956 607.653 148.796C606.543 146.996 600.634 142.349 594.52 138.473ZM602.769 38.8616C599.536 43.2433 592.157 50.8336 586.374 55.7278C575.655 64.7997 575.665 64.756 588.535 46.6534C590.814 43.4473 593.408 33.7973 594.297 25.2087C596.021 8.54406 598.729 3.59396 604.838 5.93785C611.202 8.37889 609.893 29.2018 602.769 38.8616ZM589.82 194.845C567.567 198.149 548.799 192.635 536.358 179.135C525.369 167.214 522.581 162.526 520.257 152.07C518.746 145.271 519.008 145.422 524.172 154.309C527.215 159.549 531.255 164.348 533.147 164.97C535.425 165.72 534.808 163.602 531.325 158.713C524.053 148.497 524.738 147.669 533.606 155.954C537.754 159.828 542.26 163 543.618 163C546.372 163 543.37 158.587 532.26 146.301C526.254 139.656 525.858 138.624 530.176 140.848C533.108 142.359 536.146 144.63 536.931 145.898C538.923 149.121 552.78 158.803 552.78 156.969C552.78 156.143 548.68 151.57 543.671 146.807C533.778 137.399 536.844 138.143 550.351 148.427C563.044 158.089 566.843 159.794 561.281 153.335C558.609 150.231 551.563 144.577 545.624 140.773C533.21 132.819 536.241 131.512 550.38 138.726C563.644 145.492 576.677 157.399 584.78 170.156C591.154 180.184 594.017 194.223 589.82 194.845ZM588.373 32.0436C585.254 40.6152 572.026 59.1817 570.282 57.4377C569.792 56.9471 570.783 53.9911 572.49 50.8724C574.195 47.7513 576.197 37.001 576.937 26.9818C578.227 9.53019 578.538 8.76509 584.355 8.76509C589.359 8.76509 590.525 10.0475 590.986 16.0518C591.292 20.0595 590.117 27.2563 588.373 32.0436ZM568.514 42.1915C565.305 50.9283 557.637 63.816 557.637 60.4714C557.637 59.5921 558.784 55.8614 560.183 52.1792C561.703 48.1788 562.019 40.0444 560.967 31.9829L559.206 18.4807L556.19 37.5135C552.835 58.6716 550.351 64.1148 550.351 50.3041C550.351 45.32 548.067 35.9347 545.277 29.4471C542.486 22.962 540.587 15.668 541.055 13.2367C542.219 7.1936 550.533 6.04959 554.441 11.3932C557.506 15.5879 557.776 15.5782 561.018 11.143C563.889 7.21547 564.985 7.00657 568.305 9.76094C573.119 13.7589 573.221 29.3718 568.514 42.1915ZM546.547 72.0743C541.293 82.7784 530.018 95.8361 518.143 104.976L507.845 112.904L514.039 105.768C526.547 91.3597 526.987 89.2101 515.362 99.2925C508.812 104.974 502.888 109.061 502.203 108.374C501.515 107.687 498.724 109.04 496.002 111.381C493.279 113.723 494.829 110.759 499.448 104.799C504.066 98.8383 506.555 94.7577 504.976 95.7293C499.497 99.1103 499.191 92.6713 504.347 82.5598C509.781 71.9091 516.708 53.6997 515.326 53.6997C514.884 53.6997 508.843 63.5367 501.904 75.5597C494.967 87.5828 488.863 97.4198 488.346 97.4198C487.826 97.4198 490.495 90.529 494.275 82.1056C505.219 57.7098 505.282 53.1289 494.382 74.3453C483.461 95.6006 477 104.362 483.636 88.9187C489.891 74.3647 501.921 35.9274 501.047 33.3018C500.24 30.8851 499.344 32.9447 487.071 65.4021C478.599 87.8086 475.213 90.4901 480.819 70.3546C482.813 63.1991 485.028 52.4245 485.744 46.413C486.655 38.7911 485.305 41.7301 481.285 56.1286L475.519 76.7742L475.373 58.5575C475.188 35.7088 482.873 11.4174 492.528 4.32506C503.815 -3.96719 526.79 0.334395 531.048 11.534C533.657 18.3981 529.989 40.0007 523.358 56.8257L518.627 68.8293L526.173 62.4777C533.105 56.6459 544.604 51.8634 546.518 54.0154C549.62 57.5033 549.634 65.7907 546.547 72.0743ZM528.381 197.005C525.539 197.005 519.139 190.515 506.859 175.181C502.307 169.5 494.11 162.718 488.642 160.11C478.783 155.407 478.769 155.378 486.786 156.733C499.832 158.936 510.624 165.162 521.107 176.536C530.334 186.543 534.05 197.005 528.381 197.005ZM517.966 87.7042C517.522 87.7042 513.618 92.3483 509.29 98.027L501.421 108.35L510.099 98.8358C518.333 89.8076 519.819 87.7042 517.966 87.7042ZM503.721 194.576C500.279 194.576 493.14 188.962 483.643 178.788C468.485 162.548 468.599 160.243 484.241 166.767C502.647 174.443 516.747 194.576 503.721 194.576ZM503.011 138.672C503.709 137.543 503.169 135.932 501.812 135.092C500.386 134.21 499.344 136.19 499.344 139.782C499.344 145.905 501.693 147.698 505.163 144.227C506.137 143.253 505.766 142.065 504.338 141.589C502.909 141.113 502.314 139.802 503.011 138.672ZM496.857 103.543C492.815 107.201 492.057 107.301 492.057 104.165C492.057 99.5013 498.414 93.9489 500.284 96.9777C501.039 98.1995 499.497 101.155 496.857 103.543ZM483.313 195.222C480.347 198.19 470.19 191.161 464.062 181.902C460.586 176.648 454.259 170.836 450.003 168.985C445.748 167.134 444.086 165.577 446.314 165.524C454.098 165.341 471.778 174.649 478.246 182.339C484.926 190.274 485.868 192.669 483.313 195.222ZM470.887 93.7765C466.325 108.734 463.923 114.014 458.337 121.374C454.057 127.009 453.991 126.729 454.691 105.586L455.403 84.0609L451.961 100.786C446.97 125.061 446.384 125.253 447.426 102.278C448.344 82.0012 447.018 81.7024 442.024 101.063L440.147 108.35L438.332 98.6342C437.154 92.3288 436.771 97.4441 437.237 113.208C437.946 137.227 437.915 137.39 434.274 127.781C432.071 121.969 430.497 109.285 430.356 96.2053C430.101 72.6038 432.144 66.4999 445.104 52.1063C451.611 44.8803 452.379 44.635 458.492 47.8388C462.893 50.1438 466.597 55.5626 470.015 64.7026C475.779 80.109 475.716 77.9449 470.887 93.7765ZM460.294 101.063C457.764 109.078 456.042 116.73 456.469 118.065C457.625 121.694 464.96 99.5791 464.926 92.562C464.909 89.0158 462.981 92.5523 460.294 101.063ZM455.004 22.6851C449.925 28.8618 435.175 36.6974 428.624 36.6974C427.048 36.6974 429.472 34.2175 434.011 31.1838C438.551 28.1525 444.033 22.1532 446.195 17.854C451.509 7.27863 455.738 2.4767 458.327 4.07735C462.235 6.49167 460.547 15.9425 455.004 22.6851ZM433.756 18.1989C423.715 27.2709 415.528 30.6446 423.919 22.2527C426.521 19.6514 430.373 14.1864 432.481 10.1083C434.592 6.03014 437.929 2.69286 439.899 2.69286C446.285 2.69286 443.703 9.21202 433.756 18.1989ZM419.377 15.0244C415.472 18.93 410.48 22.124 408.285 22.124C405.316 22.124 406.587 19.3211 413.249 11.194C418.175 5.18247 423.166 0.263965 424.34 0.263965C428.85 0.263965 426.171 8.23073 419.377 15.0244ZM381.146 82.5137C401.911 79.7787 400.651 75.5865 378.992 75.346L359.682 75.1298L374.863 71.5351C383.211 69.5555 390.044 66.7987 390.044 65.407C390.044 63.0801 382.4 63.68 366.969 67.2165C364.297 67.8286 367.576 65.6766 374.256 62.4316C388.613 55.4582 388.193 55.0623 371.22 59.58C364.207 61.4479 358.468 62.4656 358.468 61.8438C358.468 61.222 364.207 58.1033 371.22 54.9166C380.301 50.7899 382.363 49.0823 378.385 48.9827C375.315 48.905 369.303 50.632 365.026 52.818L357.253 56.7941L362.109 51.3509C364.778 48.3585 370.79 43.7801 375.468 41.1787L383.971 36.4496L375.587 37.8268C366.364 39.3376 357.423 46.5053 352.175 56.5973C349.84 61.0835 349.583 63.6436 351.361 64.7414C355.15 67.0829 358.21 76.5483 355.699 78.1538C351.589 80.7818 360.902 94.5173 368.618 97.2061C378.113 100.517 394.124 100.641 396.116 97.4198C397.046 95.9139 392.251 94.918 383.507 94.799C368.49 94.595 370.892 92.6689 391.258 88.581C400.828 86.6598 400.738 86.6112 385.186 85.3458L369.398 84.0609L381.146 82.5137ZM381.188 16.1684C377.654 19.4425 373.916 22.124 372.886 22.124C371.854 22.124 369.007 22.8867 366.561 23.8194C363.833 24.859 366.194 20.6278 372.662 12.887C382.75 0.815343 387.615 -1.23225 387.615 6.59607C387.615 8.58535 384.722 12.8918 381.188 16.1684ZM375.592 108.413C371.65 106.375 364.271 104.818 359.197 104.954L349.967 105.202L358.468 107.587C363.144 108.899 370.522 111.503 374.863 113.373C384.719 117.618 385.331 113.448 375.592 108.413ZM357.253 116.467C348.269 110.973 353.404 110.546 364.054 115.901C371.482 119.634 371.645 119.617 367.7 115.503C364.897 112.579 359.634 111.121 351.305 110.958C335.116 110.643 335.087 115.187 351.181 128.76C365.963 141.225 367.377 136.962 353.003 123.263L342.68 113.424L356.833 121.077C370.918 128.694 371.251 125.024 357.253 116.467ZM355.981 96.2418C354.676 97.0482 353.61 95.5204 353.61 92.8486C353.61 87.3909 349.989 84.2236 346.333 86.4849C344.808 87.4249 345.281 90.6286 347.608 95.1294C350.831 101.362 352.622 102.265 361.567 102.18L371.827 102.083L365.089 98.4302C361.385 96.4191 357.285 95.4354 355.981 96.2418ZM346.574 130.732C342.036 124.517 337.387 120.011 336.246 120.718C333.173 122.617 337.37 128.993 348.886 139.925C359.954 150.433 359.425 148.329 346.574 130.732ZM346.112 195.921C342.675 198.044 340.324 195.394 335.733 184.229C332.117 175.434 332.148 175.186 336.598 177.569C341.249 180.056 348.752 189.302 348.752 192.543C348.752 193.504 347.565 195.023 346.112 195.921ZM337.441 133.477C334.951 127.689 331.648 124.22 327.951 123.513C321.315 122.246 317.522 128.699 322.622 132.576C324.427 133.946 327.337 138.585 329.088 142.881C330.839 147.178 333.972 152.097 336.052 153.811C339.413 156.583 339.488 156.284 336.739 151.125C335.039 147.931 332.739 141.92 331.631 137.766C329.933 131.402 330.072 130.943 332.503 134.859C334.094 137.416 338.534 142.881 342.372 147.003C347.594 152.612 348.332 152.969 345.306 148.427C343.081 145.087 339.542 138.359 337.441 133.477ZM341.541 99.8487C338.289 99.8487 337.208 101.015 338.157 103.492C338.927 105.496 341.079 107.135 342.94 107.135C344.8 107.135 346.323 105.496 346.323 103.492C346.323 101.488 344.174 99.8487 341.541 99.8487ZM341.269 78.965C339.948 77.3741 334.541 76.2957 329.253 76.5653C321.743 76.9491 319.321 76.065 318.202 72.5309C315.768 64.8653 311.056 69.3758 311.794 78.6614C312.314 85.2243 311.432 87.6581 308.151 88.7001C305.015 89.6959 303.818 92.5766 303.818 99.1103C303.818 107.342 304.515 108.287 311.675 109.754C317.021 110.849 320.414 110.3 322.294 108.037C323.815 106.205 327.111 104.706 329.617 104.706C332.127 104.706 334.179 103.106 334.179 101.148C334.179 99.1929 336.124 96.5478 338.505 95.2751C343.353 92.681 344.929 83.3783 341.269 78.965ZM328.602 114.169C325.483 117.288 327.893 120.448 331.629 118.141C333.074 117.247 333.569 115.403 332.729 114.043C331.704 112.384 330.346 112.426 328.602 114.169ZM325.194 37.5305C323.956 34.3001 322.775 36.3744 320.815 45.2253L318.131 57.343L316.29 45.8058C313.681 29.4423 309.008 30.885 310.395 47.625C311.685 63.1748 311.206 63.1457 305.015 47.2947C300.845 36.6173 300.391 36.1825 300.298 42.7696C300.24 46.7773 302.254 53.4349 304.77 57.564C315.435 75.0521 332.986 57.8361 325.194 37.5305ZM311.568 114.459C310.487 114.439 310.279 115.515 311.104 116.851C311.93 118.187 314.454 119.263 316.713 119.243C320.252 119.209 320.317 118.879 317.177 116.851C315.173 115.556 312.649 114.48 311.568 114.459ZM302.603 81.632C300.701 82.8076 300.561 84.2042 302.181 85.8243C303.517 87.1601 305.892 87.4589 307.461 86.4898C309.363 85.3142 309.504 83.9176 307.884 82.2975C306.548 80.9616 304.172 80.6629 302.603 81.632ZM300.327 56.5925C296.402 51.6618 292.458 44.6107 291.557 40.9261C289.014 30.511 285.601 30.5353 285.601 40.9698C285.601 47.8485 287.707 53.1264 293.407 60.5443C300.803 70.1676 307.461 73.7623 307.461 68.1297C307.461 66.7161 304.25 61.5256 300.327 56.5925ZM297.745 94.9909C296.41 94.9909 295.317 96.1495 295.317 97.5631C295.317 98.9767 296.41 99.4601 297.745 98.6342C299.081 97.8084 300.174 96.6523 300.174 96.062C300.174 95.4718 299.081 94.9909 297.745 94.9909ZM282.985 64.8459C278.875 61.3871 273.158 58.5575 270.277 58.5575C265.922 58.5575 266.568 59.5946 274.107 64.7171C279.094 68.1054 283.172 71.3359 283.172 71.897C283.172 72.4556 278.662 71.3237 273.15 69.3806C258.269 64.1293 256.379 65.1179 267.992 72.0767C280.1 79.3342 281.117 81.1413 271.137 77.6632C267.19 76.286 261.999 75.6277 259.6 76.1961C256.428 76.9491 258.215 78.6882 266.17 82.5841L277.1 87.9374L266.17 86.4946C256.005 85.1539 255.57 85.3166 259.954 88.8069C262.548 90.8715 266.036 92.562 267.705 92.562C269.376 92.562 271.516 93.8153 272.463 95.348C273.707 97.3615 270.906 97.7647 262.361 96.8004C251.385 95.5641 250.967 95.705 256.532 98.7873C259.83 100.611 265.259 102.239 268.599 102.401C274.365 102.681 274.304 102.81 267.384 104.971C263.377 106.222 256.272 106.591 251.596 105.787C245.019 104.658 243.739 104.986 245.935 107.235C249.408 110.791 266.563 110.825 273.17 107.288C279.009 104.165 281.479 103.98 279.738 106.798C279.028 107.947 271.88 110.73 263.855 112.982C246.867 117.747 233.669 115.277 224.609 105.634C219.343 100.028 219.338 99.9046 223.603 85.9554C228.427 70.1749 240.193 50.0102 245.838 47.8436C258.354 43.0417 276.386 48.6063 285.387 60.0512C292.837 69.5215 291.564 72.0646 282.985 64.8459ZM222.282 128.617C215.746 135.634 208.52 137.062 193.439 134.32L180.719 132.007L190.408 142.039C203.252 155.337 215.6 178.955 214.668 188.45C214.043 194.836 212.885 195.892 205.766 196.572C192.46 197.845 185.3 193.089 161.365 167.076C146.032 150.413 142.007 145.019 148.976 150.472C154.652 154.914 159.298 157.887 159.298 157.078C159.298 156.267 154.652 150.491 148.976 144.244C140.394 134.798 139.882 133.746 145.94 138.004C149.947 140.819 156.437 146.503 160.36 150.634C164.283 154.764 168.604 158.142 169.961 158.142C173.889 158.142 154.251 138.757 142.862 131.393C134.728 126.129 133.365 124.356 136.53 123.142C138.748 122.292 141.135 122.168 141.835 122.865C142.534 123.564 141.762 124.138 140.117 124.138C138.476 124.138 144.579 129.187 153.68 135.357C162.781 141.526 172.837 148.905 176.024 151.752L181.817 156.928L179.177 151.839C176.354 146.408 163.173 135.413 150.958 128.306C144.424 124.502 144.254 124.16 149.583 125.52C155.347 126.992 167.819 133.839 181.159 142.852C186.903 146.734 186.862 146.554 180.393 139.498C176.631 135.398 166.522 128.614 157.926 124.422C149.33 120.23 142.296 115.646 142.296 114.233C142.296 112.7 140.093 112.331 136.831 113.317C132.539 114.614 131.978 114.322 134.223 111.962C136.479 109.584 141.244 109.562 156.928 111.855C167.843 113.451 177.326 114.208 177.999 113.536C179.529 112.005 164.705 108.151 147.154 105.518L133.795 103.514L152.012 102.12L170.228 100.723L149.119 100.286C129.093 99.8705 120.745 97.2571 129.151 94.0315C134.478 91.9864 136.814 92.2608 133.268 94.5149C131.643 95.5471 141.113 96.3487 154.312 96.2976C167.51 96.2466 177.943 95.8337 177.491 95.3771C177.039 94.9229 170.848 93.0381 163.734 91.1897L150.797 87.8305L168.594 89.0158C188.018 90.3104 196.417 93.6623 212.129 106.387C226.343 117.9 228.291 122.165 222.282 128.617ZM211.855 23.149C201.362 34.2758 188.367 39.8987 180.267 36.8213C173.153 34.1155 169.862 25.7431 173.969 20.793C181.615 11.5778 193.866 21.6285 186.978 31.4631C184.962 34.3414 184.195 36.661 185.271 36.6172C189.436 36.4448 198.241 27.0863 204.901 15.7506C212.822 2.27269 220.021 -1.22252 220.021 8.4129C220.021 11.9761 216.64 18.0751 211.855 23.149ZM181.897 23.1587C179.633 23.4915 177.362 25.3059 176.854 27.1932C176.133 29.8771 176.493 29.8309 178.509 26.9818C180.401 24.3052 181.093 24.1813 181.122 26.5179C181.141 28.2667 182.252 29.0221 183.587 28.1963C187.488 25.7868 186.385 22.5005 181.897 23.1587ZM155.473 198.625C148.555 201.279 132.301 194.418 121.143 184.134C110.038 173.896 96.1666 152.667 96.2249 145.998C96.2443 143.994 97.9542 145.791 100.026 149.993C102.098 154.195 106.577 160.207 109.977 163.352L116.161 169.072L110.113 156.928C100.883 138.4 99.6957 130.994 108.299 145.616C116.394 159.374 121.153 161.555 114.342 148.385C111.92 143.7 111.49 141.329 113.264 142.425C115.165 143.6 115.775 143.049 114.983 140.87C114.308 139.015 112.445 137.798 110.844 138.165C109.144 138.553 108.675 137.625 109.72 135.937C110.905 134.018 115.989 137.885 124.808 147.414C137.919 161.582 138.901 161.538 129.36 147.212C125.126 140.856 125.814 141.167 134.745 149.641C155.254 169.104 166.031 194.573 155.473 198.625ZM142.296 92.1782C138.956 92.1782 137.589 91.6269 139.26 90.9541C140.929 90.2788 143.661 90.2788 145.332 90.9541C147.001 91.6269 145.636 92.1782 142.296 92.1782ZM140.951 59.2716C137.54 64.2921 133.712 67.7581 132.445 66.976C131.179 66.1915 129.161 68.0763 127.963 71.1635C126.763 74.2481 122.666 79.5383 118.86 82.9169C102.426 97.4927 100.796 97.6214 113.798 83.3152C121.876 74.4279 127.718 65.7591 127.713 62.6696C127.706 57.8676 127.247 58.0596 123.062 64.6297C117.563 73.2596 104.719 88.105 107.301 82.8464C108.284 80.8426 111.095 76.303 113.548 72.7568C116.001 69.2106 118.007 64.9649 118.007 63.3205C118.007 59.7331 111.233 68.2633 103.465 81.632C100.359 86.9756 91.7047 96.8126 84.231 103.492C70.6826 115.603 71.0226 114.378 86.1887 96.4555C93.8664 87.3812 103.451 68.5524 103.419 62.6065C103.41 61.0471 99.7662 66.8765 95.3189 75.5597C90.874 84.2431 86.0843 91.3476 84.6779 91.3476C83.2716 91.3476 79.8152 94.0801 76.9977 97.4198C72.3925 102.878 72.5043 102.078 78.1247 89.5065C84.0901 76.1646 88.7487 53.5855 88.7754 37.9119C88.7924 26.3114 84.4836 35.5874 82.5769 51.2489C80.8694 65.2758 72.2419 96.1835 70.515 94.4566C69.9636 93.9052 70.5879 89.7081 71.8995 85.1296C73.2135 80.5511 74.1583 66.9615 74.0029 54.9311L73.7187 33.0541L70.5612 60.5832C68.8221 75.7249 66.9397 88.5762 66.3738 89.1397C65.8078 89.7056 65.1472 76.5021 64.9042 59.8011C64.4355 27.7081 67.185 16.914 78.2802 7.27619C84.1703 2.1585 97.7891 -0.328687 103.422 2.68556C111.194 6.84627 116.399 25.0363 114.959 42.998L113.674 59.002L121.306 51.8294C127.555 45.9563 142.855 36.6974 146.314 36.6974C149.612 36.6974 146.025 51.8052 140.951 59.2716ZM116.135 144.633C115.318 145.446 116.628 147.999 119.042 150.307C123.239 154.314 123.305 154.249 120.524 148.825C118.923 145.706 116.948 143.819 116.135 144.633ZM105.071 199.433C100.602 199.433 92.7224 190.296 87.5149 179.067C84.7581 173.124 79.0769 167.056 72.1642 162.672C59.9809 154.946 60.3598 153.887 73.3641 159.323C91.2456 166.794 108.292 184.532 108.292 195.669C108.292 197.74 106.842 199.433 105.071 199.433ZM94.9496 57.6612C93.1693 65.8539 89.9778 75.9095 87.8574 80.0095C83.993 87.4832 82.7858 92.1588 85.3968 89.5478C89.3438 85.6008 98.4424 58.6619 98.3259 51.2708C98.2165 44.4845 97.5364 45.7742 94.9496 57.6612ZM82.9607 197.005C78.0009 197.005 72.2906 190.619 68.0837 180.367C66.0823 175.492 60.9209 168.487 56.6144 164.805L48.7837 158.108L60.1849 164.329C66.4563 167.751 74.9259 174.355 79.0088 179.004C86.8226 187.903 88.8217 197.005 82.9607 197.005ZM82.5283 140.125C80.4443 134.691 74.2871 135.342 74.2871 140.997C74.2871 146.335 77.945 149.454 81.5738 147.212C84.4228 145.451 84.4617 145.162 82.5283 140.125ZM64.9674 197.974C60.9549 200.454 52.5144 191.787 49.658 182.254C48.0574 176.91 44.2513 169.845 41.2006 166.553C32.9788 157.683 37.929 159.306 49.6241 169.315C63.0146 180.777 70.4178 194.605 64.9674 197.974ZM57.1901 94.9909L55.5845 105.921L55.2202 91.9548C54.7101 72.3925 50.0734 74.4157 49.6557 94.3837L49.3132 110.779L47.7733 98.0877C45.7015 81.0369 39.3838 74.1243 41.0646 90.7452C41.7059 97.0943 41.2444 102.897 40.0421 103.64C38.8373 104.383 37.8536 100.621 37.8536 95.2775C37.8536 89.9339 36.5882 84.7798 35.041 83.8228C32.9595 82.538 32.5975 86.7643 33.654 100.075C34.6718 112.904 34.4362 115.974 32.8307 110.779C31.592 106.771 29.8869 94.6995 29.0392 83.9516C27.8053 68.3022 28.2984 62.8615 31.524 56.6265C33.7391 52.3444 36.6149 48.8419 37.9168 48.8419C39.2187 48.8419 40.2825 46.617 40.2825 43.8991C40.2825 39.6412 40.9845 39.3303 45.3468 41.6645C54.9943 46.8283 60.5711 71.9431 57.1901 94.9909ZM43.8118 197.005C41.7472 197.005 38.1937 193.565 35.9178 189.358C33.6444 185.154 28.5024 177.841 24.4947 173.109L17.2081 164.503L27.5867 170.301C33.2946 173.493 40.1271 178.115 42.7673 180.575C48.5602 185.972 49.2646 197.005 43.8118 197.005ZM45.9614 67.6658C45.2861 69.3345 45.2861 72.067 45.9614 73.7381C46.6341 75.4067 47.1855 74.0417 47.1855 70.702C47.1855 67.3622 46.6341 65.9948 45.9614 67.6658ZM37.8536 126.567C36.559 124.563 35.5001 121.83 35.5001 120.494C35.5001 119.158 36.559 119.705 37.8536 121.709C39.1483 123.713 40.2072 126.445 40.2072 127.781C40.2072 129.117 39.1483 128.57 37.8536 126.567ZM24.7595 196.026C19.6199 197.996 17.9294 196.521 9.15869 182.412L1.43237 169.983L10.7521 175.222C22.2335 181.673 30.431 193.849 24.7595 196.026Z" fill="white" stroke="#0057B7" stroke-width="2" mask="url(#path-1-inside-1_120_585)"/>
</svg>
